<svg width="475" height="450" viewBox="0 0 475 450" fill="none" xmlns="http://www.w3.org/2000/svg">
<g clip-path="url(#clip0_2364_1074)">
<path opacity="0.2" d="M246.288 443.499C305.416 443.499 353.349 429.125 353.349 411.394C353.349 393.663 305.416 379.289 246.288 379.289C187.159 379.289 139.227 393.663 139.227 411.394C139.227 429.125 187.159 443.499 246.288 443.499Z" fill="#B194F0"/>
<path opacity="0.1" d="M246.452 426.468C289.711 426.468 324.779 415.952 324.779 402.98C324.779 390.008 289.711 379.492 246.452 379.492C203.193 379.492 168.125 390.008 168.125 402.98C168.125 415.952 203.193 426.468 246.452 426.468Z" fill="#3600A9"/>
<path opacity="0.1" d="M246.534 418.879C278.926 418.879 305.185 411.005 305.185 401.291C305.185 391.578 278.926 383.703 246.534 383.703C214.142 383.703 187.883 391.578 187.883 401.291C187.883 411.005 214.142 418.879 246.534 418.879Z" fill="black"/>
<path d="M382.378 264.305H101.5V271.3H382.378V264.305Z" fill="#5E23DD"/>
<path d="M346.277 110.984H141.425C138.636 110.984 136.375 113.245 136.375 116.034V252.472C136.375 255.261 138.636 257.522 141.425 257.522H346.277C349.066 257.522 351.327 255.261 351.327 252.472V116.034C351.327 113.245 349.066 110.984 346.277 110.984Z" fill="#5E23DD"/>
<path d="M345.306 111.594H142.406C140.808 111.594 139.276 112.228 138.147 113.358C137.017 114.487 136.383 116.019 136.383 117.617V243.128H351.329V117.612C351.328 116.015 350.692 114.485 349.563 113.356C348.434 112.228 346.902 111.594 345.306 111.594Z" fill="#1F4489"/>
<path d="M345.306 115.133H142.406C140.808 115.133 139.276 115.767 138.147 116.897C137.017 118.026 136.383 119.558 136.383 121.156V121.59C136.383 119.992 137.017 118.46 138.147 117.331C139.276 116.201 140.808 115.567 142.406 115.567H345.306C346.097 115.567 346.88 115.723 347.611 116.025C348.341 116.328 349.005 116.772 349.565 117.331C350.124 117.89 350.568 118.554 350.87 119.285C351.173 120.016 351.329 120.799 351.329 121.59V121.156C351.329 120.365 351.173 119.582 350.87 118.851C350.568 118.12 350.124 117.456 349.565 116.897C349.005 116.338 348.341 115.894 347.611 115.591C346.88 115.289 346.097 115.133 345.306 115.133Z" fill="#479EE8"/>
<path d="M144.758 120.359H343.002V237.696H144.758V120.359Z" fill="#2A5FD1"/>
<path d="M284.879 135.562H172.303C171.661 135.562 171.141 136.083 171.141 136.724V137.173C171.141 137.815 171.661 138.336 172.303 138.336H284.879C285.52 138.336 286.041 137.815 286.041 137.173V136.724C286.041 136.083 285.52 135.562 284.879 135.562Z" fill="#4795FA"/>
<path d="M225.154 126.297H153.172C152.348 126.297 151.68 126.965 151.68 127.789V128.365C151.68 129.189 152.348 129.857 153.172 129.857H225.154C225.978 129.857 226.646 129.189 226.646 128.365V127.789C226.646 126.965 225.978 126.297 225.154 126.297Z" fill="#4795FA"/>
<path d="M160.49 135.562H152.842C152.2 135.562 151.68 136.083 151.68 136.724V137.173C151.68 137.815 152.2 138.336 152.842 138.336H160.49C161.131 138.336 161.652 137.815 161.652 137.173V136.724C161.652 136.083 161.131 135.562 160.49 135.562Z" fill="#4795FA"/>
<path d="M211.579 144.211H153.567C153.167 144.211 152.844 144.535 152.844 144.934V145.211C152.844 145.61 153.167 145.934 153.567 145.934H211.579C211.978 145.934 212.302 145.61 212.302 145.211V144.934C212.302 144.535 211.978 144.211 211.579 144.211Z" fill="#4795FA"/>
<path d="M211.579 151.227H153.567C153.167 151.227 152.844 151.55 152.844 151.95V152.227C152.844 152.626 153.167 152.95 153.567 152.95H211.579C211.978 152.95 212.302 152.626 212.302 152.227V151.95C212.302 151.55 211.978 151.227 211.579 151.227Z" fill="#4795FA"/>
<path d="M211.579 158.25H153.567C153.167 158.25 152.844 158.574 152.844 158.973V159.25C152.844 159.649 153.167 159.973 153.567 159.973H211.579C211.978 159.973 212.302 159.649 212.302 159.25V158.973C212.302 158.574 211.978 158.25 211.579 158.25Z" fill="#4795FA"/>
<path d="M211.579 165.273H153.567C153.167 165.273 152.844 165.597 152.844 165.996V166.273C152.844 166.673 153.167 166.996 153.567 166.996H211.579C211.978 166.996 212.302 166.673 212.302 166.273V165.996C212.302 165.597 211.978 165.273 211.579 165.273Z" fill="#4795FA"/>
<path d="M162.653 172.289H153.567C153.167 172.289 152.844 172.613 152.844 173.012V173.289C152.844 173.688 153.167 174.012 153.567 174.012H162.653C163.052 174.012 163.376 173.688 163.376 173.289V173.012C163.376 172.613 163.052 172.289 162.653 172.289Z" fill="#4795FA"/>
<path d="M178.028 172.289H168.942C168.542 172.289 168.219 172.613 168.219 173.012V173.289C168.219 173.688 168.542 174.012 168.942 174.012H178.028C178.427 174.012 178.751 173.688 178.751 173.289V173.012C178.751 172.613 178.427 172.289 178.028 172.289Z" fill="#4795FA"/>
<path d="M193.403 172.289H184.317C183.917 172.289 183.594 172.613 183.594 173.012V173.289C183.594 173.688 183.917 174.012 184.317 174.012H193.403C193.802 174.012 194.126 173.688 194.126 173.289V173.012C194.126 172.613 193.802 172.289 193.403 172.289Z" fill="#4795FA"/>
<path d="M208.778 172.289H199.692C199.292 172.289 198.969 172.613 198.969 173.012V173.289C198.969 173.688 199.292 174.012 199.692 174.012H208.778C209.177 174.012 209.501 173.688 209.501 173.289V173.012C209.501 172.613 209.177 172.289 208.778 172.289Z" fill="#4795FA"/>
<path d="M224.153 172.289H215.067C214.667 172.289 214.344 172.613 214.344 173.012V173.289C214.344 173.688 214.667 174.012 215.067 174.012H224.153C224.552 174.012 224.876 173.688 224.876 173.289V173.012C224.876 172.613 224.552 172.289 224.153 172.289Z" fill="#4795FA"/>
<path d="M239.528 172.289H230.442C230.042 172.289 229.719 172.613 229.719 173.012V173.289C229.719 173.688 230.042 174.012 230.442 174.012H239.528C239.927 174.012 240.251 173.688 240.251 173.289V173.012C240.251 172.613 239.927 172.289 239.528 172.289Z" fill="#4795FA"/>
<path d="M211.579 179.312H153.567C153.167 179.312 152.844 179.636 152.844 180.035V180.312C152.844 180.712 153.167 181.036 153.567 181.036H211.579C211.978 181.036 212.302 180.712 212.302 180.312V180.035C212.302 179.636 211.978 179.312 211.579 179.312Z" fill="#4795FA"/>
<path d="M330.365 155.289H259.163C258.607 155.289 258.156 155.74 258.156 156.296V156.685C258.156 157.241 258.607 157.692 259.163 157.692H330.365C330.921 157.692 331.372 157.241 331.372 156.685V156.296C331.372 155.74 330.921 155.289 330.365 155.289Z" fill="#4795FA"/>
<path d="M330.365 165.789H259.163C258.607 165.789 258.156 166.24 258.156 166.796V167.185C258.156 167.741 258.607 168.192 259.163 168.192H330.365C330.921 168.192 331.372 167.741 331.372 167.185V166.796C331.372 166.24 330.921 165.789 330.365 165.789Z" fill="#4795FA"/>
<path d="M330.365 175.633H259.163C258.607 175.633 258.156 176.084 258.156 176.64V177.029C258.156 177.585 258.607 178.036 259.163 178.036H330.365C330.921 178.036 331.372 177.585 331.372 177.029V176.64C331.372 176.084 330.921 175.633 330.365 175.633Z" fill="#4795FA"/>
<path d="M330.365 185.469H259.163C258.607 185.469 258.156 185.92 258.156 186.476V186.865C258.156 187.421 258.607 187.872 259.163 187.872H330.365C330.921 187.872 331.372 187.421 331.372 186.865V186.476C331.372 185.92 330.921 185.469 330.365 185.469Z" fill="#4795FA"/>
<path d="M330.365 195.305H259.163C258.607 195.305 258.156 195.756 258.156 196.312V196.701C258.156 197.257 258.607 197.708 259.163 197.708H330.365C330.921 197.708 331.372 197.257 331.372 196.701V196.312C331.372 195.756 330.921 195.305 330.365 195.305Z" fill="#4795FA"/>
<path d="M295.937 205.141H259.163C258.607 205.141 258.156 205.591 258.156 206.148V206.537C258.156 207.093 258.607 207.544 259.163 207.544H295.937C296.493 207.544 296.944 207.093 296.944 206.537V206.148C296.944 205.591 296.493 205.141 295.937 205.141Z" fill="#4795FA"/>
<path d="M319.726 211.836H282.952C282.396 211.836 281.945 212.287 281.945 212.843V213.232C281.945 213.788 282.396 214.239 282.952 214.239H319.726C320.282 214.239 320.733 213.788 320.733 213.232V212.843C320.733 212.287 320.282 211.836 319.726 211.836Z" fill="#4795FA"/>
<path d="M319.726 218.773H282.952C282.396 218.773 281.945 219.224 281.945 219.78V220.169C281.945 220.726 282.396 221.176 282.952 221.176H319.726C320.282 221.176 320.733 220.726 320.733 220.169V219.78C320.733 219.224 320.282 218.773 319.726 218.773Z" fill="#4795FA"/>
<path d="M179.817 218.773H162.468C161.912 218.773 161.461 219.224 161.461 219.78V220.169C161.461 220.726 161.912 221.176 162.468 221.176H179.817C180.373 221.176 180.824 220.726 180.824 220.169V219.78C180.824 219.224 180.373 218.773 179.817 218.773Z" fill="#4795FA"/>
<path d="M179.817 213.039H162.468C161.912 213.039 161.461 213.49 161.461 214.046V214.435C161.461 214.991 161.912 215.442 162.468 215.442H179.817C180.373 215.442 180.824 214.991 180.824 214.435V214.046C180.824 213.49 180.373 213.039 179.817 213.039Z" fill="#4795FA"/>
<path d="M179.817 207.305H162.468C161.912 207.305 161.461 207.756 161.461 208.312V208.701C161.461 209.257 161.912 209.708 162.468 209.708H179.817C180.373 209.708 180.824 209.257 180.824 208.701V208.312C180.824 207.756 180.373 207.305 179.817 207.305Z" fill="#4795FA"/>
<path d="M179.817 201.57H162.468C161.912 201.57 161.461 202.021 161.461 202.577V202.966C161.461 203.522 161.912 203.973 162.468 203.973H179.817C180.373 203.973 180.824 203.522 180.824 202.966V202.577C180.824 202.021 180.373 201.57 179.817 201.57Z" fill="#4795FA"/>
<g opacity="0.17">
<path d="M343.004 194.771V173.719L279.031 237.692H300.083L343.004 194.771Z" fill="#479EE8"/>
<path d="M232.858 237.694L343.001 127.552V120.352H294.017L176.68 237.694H232.858Z" fill="#479EE8"/>
<path d="M144.758 171.388V218.806L243.205 120.359H195.787L144.758 171.388Z" fill="#479EE8"/>
</g>
<path d="M255.621 175.078H233.594V191.659H255.621V175.078Z" fill="#FEB187"/>
<path d="M233.594 188.078C240.699 190.715 248.515 190.715 255.621 188.078V192.899L249.565 194.006L244.607 195.014L233.594 191.375V188.078Z" fill="#F88B65"/>
<path d="M272.497 275.523H216.571C211.794 275.523 207.922 279.396 207.922 284.172V297.682C207.922 302.459 211.794 306.331 216.571 306.331H272.497C277.274 306.331 281.146 302.459 281.146 297.682V284.172C281.146 279.396 277.274 275.523 272.497 275.523Z" fill="#333049"/>
<path d="M280.827 294.401C243.043 305.545 208.237 294.319 208.219 294.312C208.913 297.698 210.752 300.742 213.426 302.931C216.101 305.121 219.447 306.322 222.904 306.333H266.161C269.601 306.322 272.934 305.132 275.603 302.96C278.272 300.789 280.116 297.768 280.827 294.401Z" fill="#28243F"/>
<path d="M248.172 125.98L263.551 110.602C264.67 113.028 265.204 115.684 265.11 118.355C265.016 121.026 264.296 123.638 263.008 125.98L269.352 119.636C269.352 119.636 272.208 128.192 266.417 132.876L271.655 127.639C271.655 127.639 274.955 137.365 262.8 144.825L248.172 125.98Z" fill="#333049"/>
<path d="M260.756 142.191L265.6 142.827L265.637 142.797C265.675 142.418 266.917 129.003 251.511 122.641L248.172 125.98L260.756 142.191Z" fill="#28243F"/>
<path d="M263.063 165.547C266.838 165.547 269.899 162.486 269.899 158.711C269.899 154.936 266.838 151.875 263.063 151.875C259.287 151.875 256.227 154.936 256.227 158.711C256.227 162.486 259.287 165.547 263.063 165.547Z" fill="#FEB187"/>
<path d="M226.305 165.547C230.08 165.547 233.141 162.486 233.141 158.711C233.141 154.936 230.08 151.875 226.305 151.875C222.529 151.875 219.469 154.936 219.469 158.711C219.469 162.486 222.529 165.547 226.305 165.547Z" fill="#FEB187"/>
<path d="M248.037 125.695H241.175C231.34 125.695 223.367 133.668 223.367 143.503V167.099C223.367 176.934 231.34 184.907 241.175 184.907H248.037C257.872 184.907 265.845 176.934 265.845 167.099V143.503C265.845 133.668 257.872 125.695 248.037 125.695Z" fill="#333049"/>
<path d="M240.133 182.349V187.89L241.683 186.34L243.374 188.031L244.968 186.431L246.612 188.075V182.344L240.133 182.349Z" fill="#333049"/>
<path d="M245.805 181.938L246.616 186.626L247.9 185.342L249.3 186.742L250.621 185.421L251.983 186.783V182.038L245.805 181.938Z" fill="#333049"/>
<path d="M234.766 182.036V186.626L236.05 185.342L237.45 186.743L238.771 185.421L240.133 186.784L240.633 181.938L234.766 182.036Z" fill="#333049"/>
<path d="M195.125 234.115L192.742 248.923H206.731V232.265L196.831 230.195" fill="#FEB187"/>
<path d="M204.196 237.133H194.641L195.126 234.117L204.196 237.133Z" fill="#DC9266"/>
<path d="M219.896 196.07C209.879 200.97 200.966 202.47 189.719 232.32L206.749 237.983C206.749 237.983 217.962 210.078 219.896 196.07Z" fill="#3C00BC"/>
<path d="M292.934 234.115L295.317 248.923H281.328V232.265L291.228 230.195" fill="#FEB187"/>
<path d="M283.867 237.133H293.422L292.937 234.117L283.867 237.133Z" fill="#DC9266"/>
<path d="M268.164 196.07C278.181 200.97 287.094 202.47 298.341 232.32L281.311 237.983C281.311 237.983 270.102 210.078 268.164 196.07Z" fill="#3C00BC"/>
<path d="M249.506 294.316H238.513C219.777 294.316 208.145 285.443 208.145 264.829L204.445 224.559C204.471 215.532 208.069 206.883 214.451 200.5C220.834 194.117 229.484 190.519 238.51 190.492H249.503C258.53 190.519 267.179 194.116 273.562 200.498C279.945 206.88 283.543 215.529 283.57 224.555L277.743 262.394C277.745 286.182 268.243 294.316 249.506 294.316Z" fill="#224DC2"/>
<path d="M271.852 198.938C250.031 202.35 220.968 199.438 216.189 198.914C211.227 203.231 207.616 208.888 205.789 215.206L209.178 215.559L222.969 217.503L240.633 220.276L256.933 221.308L275.661 219.245L281.684 213.496C279.728 207.871 276.34 202.853 271.852 198.938Z" fill="#133AAF"/>
<path d="M218.461 397.382C218.461 400.41 222.72 399.951 227.974 399.951C233.228 399.951 237.486 400.41 237.486 397.382C237.486 394.354 233.227 391.898 227.974 391.898C222.721 391.898 218.461 394.349 218.461 397.382Z" fill="#224DC2"/>
<path d="M212.391 306.328L227.783 395.934C230.93 396.914 234.301 396.914 237.449 395.934V327.906L212.391 306.328Z" fill="#333049"/>
<path d="M237.446 329.411L236.627 327.911L235.727 327.78L215.438 325.68L218.428 341.465C220.918 341.59 232.178 336.399 237.278 349.426L237.452 348.526L237.446 329.411Z" fill="#28243F"/>
<path d="M270.641 397.382C270.641 400.41 266.383 399.951 261.13 399.951C255.877 399.951 251.617 400.41 251.617 397.382C251.617 394.354 255.876 391.898 261.13 391.898C266.384 391.898 270.641 394.349 270.641 397.382Z" fill="#224DC2"/>
<path d="M276.708 306.328L261.316 395.938C258.168 396.918 254.797 396.918 251.648 395.938V327.906L276.708 306.328Z" fill="#333049"/>
<path d="M251.653 329.411L252.474 327.911L253.374 327.78L273.663 325.68L270.673 341.465C268.183 341.59 256.923 336.399 251.823 349.426L251.648 348.526L251.653 329.411Z" fill="#28243F"/>
<path d="M242.094 325.489V383.888C242.094 384.666 242.725 385.297 243.503 385.297H245.565C246.343 385.297 246.974 384.666 246.974 383.888V325.489C246.974 324.711 246.343 324.08 245.565 324.08H243.503C242.725 324.08 242.094 324.711 242.094 325.489Z" fill="#2273DB"/>
<path d="M243.242 322.398H247.157C248.584 322.398 249.953 322.965 250.962 323.974C251.971 324.984 252.538 326.352 252.538 327.779V345.379C252.539 347.159 251.833 348.866 250.575 350.125C249.317 351.384 247.611 352.091 245.831 352.092H243.242C241.462 352.092 239.755 351.385 238.497 350.127C237.238 348.868 236.531 347.161 236.531 345.381V329.109C236.531 327.33 237.238 325.623 238.497 324.364C239.755 323.105 241.462 322.398 243.242 322.398Z" fill="#22A4FD"/>
<path opacity="0.65" d="M252.541 330.624C250.026 329.51 247.306 328.935 244.556 328.935C241.805 328.935 239.085 329.51 236.57 330.624V324.924C239.085 323.81 241.805 323.234 244.556 323.234C247.306 323.234 250.026 323.81 252.541 324.924V330.624Z" fill="#224DC2"/>
<path d="M207.893 307.462H197.732C191.328 307.458 185.178 304.956 180.591 300.489C176.003 296.021 173.339 289.939 173.165 283.538C172.992 277.137 175.322 270.92 179.661 266.21C184 261.5 190.005 258.668 196.399 258.317C196.546 258.294 196.694 258.282 196.843 258.281H197.733C198.093 258.281 198.45 258.352 198.783 258.49C199.115 258.628 199.418 258.83 199.672 259.085C199.927 259.339 200.129 259.642 200.267 259.975C200.405 260.307 200.476 260.664 200.476 261.024C200.476 261.384 200.405 261.741 200.267 262.074C200.129 262.407 199.927 262.709 199.672 262.964C199.418 263.219 199.115 263.421 198.783 263.558C198.45 263.696 198.093 263.767 197.733 263.767C192.666 263.767 187.806 265.78 184.224 269.363C180.641 272.946 178.628 277.805 178.628 282.872C178.628 287.939 180.641 292.799 184.224 296.382C187.806 299.964 192.666 301.977 197.733 301.977H207.894C208.621 301.977 209.319 302.266 209.833 302.781C210.348 303.295 210.637 303.993 210.637 304.72C210.637 305.448 210.348 306.145 209.833 306.66C209.319 307.174 208.621 307.463 207.894 307.463L207.893 307.462Z" fill="#5E23DD"/>
<path d="M201.06 255.547H190.734C188.611 255.547 186.891 257.267 186.891 259.39V260.87C186.891 262.992 188.611 264.713 190.734 264.713H201.06C203.182 264.713 204.903 262.992 204.903 260.87V259.39C204.903 257.267 203.182 255.547 201.06 255.547Z" fill="#844DF9"/>
<path d="M191.474 256.072H200.32C201.486 256.077 202.607 256.527 203.453 257.33C204.3 258.132 204.809 259.227 204.877 260.392C204.877 260.304 204.903 260.219 204.903 260.129C204.898 258.915 204.413 257.752 203.555 256.894C202.697 256.036 201.534 255.551 200.32 255.547H191.474C190.26 255.551 189.097 256.036 188.238 256.894C187.38 257.752 186.895 258.915 186.891 260.129C186.891 260.22 186.912 260.304 186.918 260.392C186.985 259.227 187.493 258.132 188.34 257.329C189.186 256.527 190.307 256.077 191.474 256.072Z" fill="#224DC2"/>
<path d="M279.993 307.462H290.154C296.558 307.458 302.707 304.956 307.295 300.489C311.883 296.021 314.547 289.939 314.721 283.538C314.894 277.137 312.564 270.92 308.225 266.21C303.886 261.5 297.881 258.668 291.487 258.317C291.34 258.294 291.192 258.282 291.043 258.281H290.153C289.793 258.281 289.436 258.352 289.103 258.49C288.771 258.628 288.468 258.83 288.213 259.085C287.959 259.339 287.757 259.642 287.619 259.975C287.481 260.307 287.41 260.664 287.41 261.024C287.41 261.384 287.481 261.741 287.619 262.074C287.757 262.407 287.959 262.709 288.213 262.964C288.468 263.219 288.771 263.421 289.103 263.558C289.436 263.696 289.793 263.767 290.153 263.767C295.22 263.767 300.079 265.78 303.662 269.363C307.245 272.946 309.258 277.805 309.258 282.872C309.258 287.939 307.245 292.799 303.662 296.382C300.079 299.964 295.22 301.977 290.153 301.977H279.993C279.266 301.977 278.568 302.266 278.053 302.781C277.539 303.295 277.25 303.993 277.25 304.72C277.25 305.448 277.539 306.145 278.053 306.66C278.568 307.174 279.266 307.463 279.993 307.463V307.462Z" fill="#5E23DD"/>
<path d="M297.153 255.547H286.827C284.705 255.547 282.984 257.267 282.984 259.39V260.87C282.984 262.992 284.705 264.713 286.827 264.713H297.153C299.276 264.713 300.996 262.992 300.996 260.87V259.39C300.996 257.267 299.276 255.547 297.153 255.547Z" fill="#844DF9"/>
<path d="M296.413 256.072H287.567C286.401 256.077 285.28 256.527 284.434 257.33C283.587 258.132 283.078 259.227 283.01 260.392C283.01 260.304 282.984 260.219 282.984 260.129C282.989 258.915 283.474 257.752 284.332 256.894C285.19 256.036 286.353 255.551 287.567 255.547H296.413C297.627 255.551 298.79 256.036 299.649 256.894C300.507 257.752 300.992 258.915 300.996 260.129C300.996 260.22 300.974 260.304 300.969 260.392C300.902 259.227 300.394 258.132 299.547 257.329C298.701 256.527 297.58 256.077 296.413 256.072Z" fill="#224DC2"/>
<path d="M204.855 299.719H284.216C287.121 299.747 289.897 300.92 291.942 302.985C293.987 305.049 295.134 307.836 295.134 310.742C295.134 313.647 293.987 316.435 291.942 318.499C289.897 320.563 287.121 321.737 284.216 321.764H204.855C203.398 321.778 201.954 321.503 200.604 320.956C199.255 320.408 198.027 319.598 196.992 318.573C195.958 317.548 195.136 316.329 194.576 314.984C194.015 313.64 193.727 312.198 193.727 310.742C193.727 309.285 194.015 307.843 194.576 306.499C195.136 305.155 195.958 303.935 196.992 302.91C198.027 301.885 199.255 301.076 200.604 300.528C201.954 299.98 203.398 299.705 204.855 299.719Z" fill="#B390FF"/>
<path d="M204.85 300.751H284.211C287.041 300.76 289.76 301.854 291.807 303.809C293.854 305.764 295.072 308.43 295.211 311.257C295.219 311.085 295.237 310.915 295.237 310.741C295.228 307.82 294.064 305.022 291.999 302.957C289.934 300.891 287.136 299.727 284.215 299.719H204.85C201.93 299.727 199.131 300.891 197.066 302.957C195.001 305.022 193.837 307.82 193.828 310.741C193.828 310.915 193.846 311.086 193.854 311.257C193.993 308.43 195.211 305.764 197.258 303.809C199.305 301.854 202.024 300.759 204.854 300.751H204.85Z" fill="#224DC2"/>
<path d="M257.985 289.85H229.355C223.847 289.834 218.569 287.639 214.674 283.744C210.779 279.849 208.583 274.57 208.567 269.062L203.367 224.077C203.383 218.569 205.579 213.291 209.474 209.396C213.369 205.5 218.647 203.305 224.155 203.289H264.914C270.423 203.305 275.702 205.501 279.597 209.397C283.493 213.293 285.687 218.573 285.702 224.082L278.773 269.067C278.757 274.576 276.562 279.854 272.667 283.749C268.772 287.644 263.494 289.839 257.985 289.855V289.85Z" fill="#B390FF"/>
<path d="M224.156 204.164H264.911C270.311 204.182 275.493 206.296 279.365 210.06C283.237 213.824 285.497 218.944 285.668 224.341L285.699 224.077C285.683 218.569 283.488 213.291 279.593 209.395C275.698 205.5 270.42 203.305 264.911 203.289H224.156C218.648 203.305 213.369 205.5 209.474 209.395C205.579 213.29 203.384 218.569 203.367 224.077L203.396 224.397C203.553 218.989 205.807 213.855 209.681 210.079C213.556 206.303 218.746 204.182 224.156 204.164Z" fill="#52FFFD"/>
<path d="M280.331 316.164H208.736C206.479 316.164 204.648 317.994 204.648 320.252V321.827C204.648 324.085 206.479 325.915 208.736 325.915H280.331C282.589 325.915 284.419 324.085 284.419 321.827V320.252C284.419 317.994 282.589 316.164 280.331 316.164Z" fill="#844DF9"/>
<path d="M262.946 325.75H226.119C224.565 325.75 223.305 327.01 223.305 328.564V332.687C223.305 334.241 224.565 335.501 226.119 335.501H262.946C264.5 335.501 265.76 334.241 265.76 332.687V328.564C265.76 327.01 264.5 325.75 262.946 325.75Z" fill="#5E23DD"/>
<path d="M209.523 316.476H279.543C280.807 316.481 282.019 316.976 282.925 317.856C283.832 318.736 284.362 319.933 284.403 321.196C284.403 321.142 284.419 321.096 284.419 321.04C284.415 319.748 283.9 318.51 282.987 317.597C282.073 316.683 280.835 316.168 279.543 316.164H209.523C208.232 316.168 206.994 316.683 206.08 317.597C205.167 318.51 204.652 319.748 204.648 321.04C204.648 321.094 204.662 321.14 204.664 321.196C204.706 319.934 205.236 318.736 206.142 317.856C207.048 316.976 208.26 316.481 209.523 316.476Z" fill="#2293F0"/>
<path d="M275.696 323.68H213.374C212.244 323.68 211.328 324.596 211.328 325.726V326.514C211.328 327.644 212.244 328.56 213.374 328.56H275.696C276.826 328.56 277.742 327.644 277.742 326.514V325.726C277.742 324.596 276.826 323.68 275.696 323.68Z" fill="#B390FF"/>
<path d="M213.768 323.838H275.301C275.933 323.84 276.54 324.088 276.993 324.528C277.447 324.968 277.712 325.567 277.733 326.199C277.733 326.173 277.741 326.148 277.741 326.12C277.739 325.473 277.481 324.854 277.024 324.397C276.567 323.94 275.948 323.682 275.301 323.68H213.768C213.122 323.682 212.502 323.939 212.045 324.396C211.588 324.854 211.33 325.473 211.328 326.12C211.328 326.147 211.335 326.172 211.335 326.199C211.357 325.567 211.622 324.968 212.076 324.528C212.529 324.087 213.136 323.84 213.768 323.838Z" fill="#22B2FF"/>
<path d="M240.094 389.088V381.509C240.097 380.333 240.566 379.206 241.398 378.374C242.229 377.543 243.357 377.074 244.533 377.07C245.709 377.074 246.836 377.543 247.668 378.374C248.5 379.206 248.968 380.333 248.972 381.509V389.088" fill="#22A4FD"/>
<path d="M211.336 397.31C210.94 397.31 210.555 397.175 210.246 396.926C209.938 396.677 209.724 396.33 209.64 395.943C209.557 395.556 209.609 395.151 209.787 394.797C209.966 394.444 210.261 394.162 210.622 393.999C221.559 389.061 233.422 386.508 245.422 386.508C257.422 386.508 269.285 389.061 280.222 393.999C280.432 394.091 280.622 394.223 280.781 394.389C280.939 394.554 281.063 394.75 281.146 394.964C281.228 395.178 281.268 395.406 281.261 395.635C281.255 395.864 281.203 396.09 281.108 396.299C281.014 396.508 280.879 396.696 280.711 396.853C280.544 397.009 280.347 397.131 280.132 397.211C279.917 397.29 279.688 397.327 279.459 397.317C279.23 397.308 279.005 397.253 278.797 397.156C268.307 392.422 256.93 389.974 245.422 389.974C233.913 389.974 222.537 392.422 212.047 397.156C211.824 397.257 211.581 397.31 211.336 397.31Z" fill="#2273DB"/>
<path d="M250.885 385.297H238.882C237.968 385.297 237.227 386.038 237.227 386.952V389.378C237.227 390.292 237.968 391.033 238.882 391.033H250.885C251.799 391.033 252.54 390.292 252.54 389.378V386.952C252.54 386.038 251.799 385.297 250.885 385.297Z" fill="#224DC2"/>
<path d="M245.073 388.164H244.678C244.114 388.164 243.656 388.622 243.656 389.186V402.518C243.656 403.082 244.114 403.54 244.678 403.54H245.073C245.638 403.54 246.095 403.082 246.095 402.518V389.186C246.095 388.622 245.638 388.164 245.073 388.164Z" fill="#2273DB"/>
<path d="M244.884 398.531C245.761 398.532 246.601 398.88 247.221 399.5C247.841 400.12 248.189 400.961 248.189 401.837V408.087C248.174 408.954 247.819 409.78 247.201 410.388C246.583 410.995 245.75 411.336 244.884 411.336C244.017 411.336 243.185 410.995 242.566 410.388C241.948 409.78 241.593 408.954 241.578 408.087V401.837C241.578 400.96 241.926 400.12 242.546 399.5C243.166 398.88 244.007 398.531 244.884 398.531Z" fill="#224DC2"/>
<path d="M282.506 405.496C285.952 405.496 288.746 402.702 288.746 399.256C288.746 395.809 285.952 393.016 282.506 393.016C279.059 393.016 276.266 395.809 276.266 399.256C276.266 402.702 279.059 405.496 282.506 405.496Z" fill="#224DC2"/>
<path d="M282.506 393.175C284.146 393.175 285.72 393.822 286.887 394.976C288.053 396.129 288.718 397.695 288.738 399.336C288.738 399.309 288.746 399.284 288.746 399.256C288.746 397.601 288.088 396.014 286.918 394.843C285.748 393.673 284.161 393.016 282.506 393.016C280.851 393.016 279.264 393.673 278.093 394.843C276.923 396.014 276.266 397.601 276.266 399.256C276.266 399.283 276.274 399.309 276.274 399.336C276.293 397.695 276.959 396.129 278.125 394.976C279.291 393.823 280.865 393.176 282.506 393.175Z" fill="#224DC2"/>
<path d="M282.502 402.973C284.557 402.973 286.223 401.307 286.223 399.252C286.223 397.197 284.557 395.531 282.502 395.531C280.447 395.531 278.781 397.197 278.781 399.252C278.781 401.307 280.447 402.973 282.502 402.973Z" fill="#67A5FF"/>
<path d="M282.502 400.746C283.327 400.746 283.996 400.077 283.996 399.252C283.996 398.427 283.327 397.758 282.502 397.758C281.677 397.758 281.008 398.427 281.008 399.252C281.008 400.077 281.677 400.746 282.502 400.746Z" fill="#2273DB"/>
<path d="M282.502 397.84C282.89 397.841 283.262 397.993 283.539 398.264C283.817 398.535 283.978 398.903 283.988 399.291C283.988 399.278 283.996 399.266 283.996 399.252C283.996 398.856 283.838 398.476 283.558 398.195C283.278 397.915 282.898 397.758 282.502 397.758C282.106 397.758 281.726 397.915 281.445 398.195C281.165 398.476 281.008 398.856 281.008 399.252C281.008 399.266 281.015 399.278 281.015 399.291C281.025 398.903 281.186 398.534 281.464 398.263C281.741 397.992 282.114 397.84 282.502 397.84Z" fill="#5FFFFF"/>
<path d="M209.607 405.496C213.053 405.496 215.847 402.702 215.847 399.256C215.847 395.809 213.053 393.016 209.607 393.016C206.161 393.016 203.367 395.809 203.367 399.256C203.367 402.702 206.161 405.496 209.607 405.496Z" fill="#224DC2"/>
<path d="M209.607 393.175C211.248 393.175 212.822 393.822 213.988 394.976C215.155 396.129 215.82 397.695 215.839 399.336C215.839 399.309 215.847 399.284 215.847 399.256C215.847 397.601 215.19 396.014 214.02 394.843C212.849 393.673 211.262 393.016 209.607 393.016C207.952 393.016 206.365 393.673 205.195 394.843C204.025 396.014 203.367 397.601 203.367 399.256C203.367 399.283 203.375 399.309 203.375 399.336C203.395 397.695 204.06 396.129 205.227 394.976C206.393 393.823 207.967 393.176 209.607 393.175Z" fill="#2273DB"/>
<path d="M209.604 402.973C211.659 402.973 213.325 401.307 213.325 399.252C213.325 397.197 211.659 395.531 209.604 395.531C207.549 395.531 205.883 397.197 205.883 399.252C205.883 401.307 207.549 402.973 209.604 402.973Z" fill="#67A5FF"/>
<path d="M209.603 400.746C210.428 400.746 211.097 400.077 211.097 399.252C211.097 398.427 210.428 397.758 209.603 397.758C208.778 397.758 208.109 398.427 208.109 399.252C208.109 400.077 208.778 400.746 209.603 400.746Z" fill="#2273DB"/>
<path d="M209.61 397.84C209.998 397.841 210.37 397.993 210.648 398.264C210.925 398.535 211.086 398.904 211.096 399.291C211.096 399.278 211.104 399.266 211.104 399.252C211.094 398.863 210.932 398.493 210.653 398.221C210.374 397.949 210 397.797 209.611 397.797C209.221 397.797 208.847 397.949 208.568 398.221C208.289 398.493 208.127 398.863 208.117 399.252C208.117 399.266 208.124 399.278 208.124 399.291C208.134 398.904 208.295 398.535 208.573 398.264C208.85 397.993 209.222 397.841 209.61 397.84Z" fill="#5FFFFF"/>
<path d="M257.225 231.875H231.84C227.126 231.875 223.305 235.696 223.305 240.41V243.699C223.305 248.413 227.126 252.234 231.84 252.234H257.225C261.938 252.234 265.76 248.413 265.76 243.699V240.41C265.76 235.696 261.938 231.875 257.225 231.875Z" fill="#224DC2"/>
<path d="M255.584 231.875H233.484C230.787 231.883 228.202 232.958 226.295 234.865C224.388 236.773 223.313 239.357 223.305 242.054C223.305 242.111 223.312 242.166 223.313 242.222C223.363 239.555 224.456 237.014 226.357 235.143C228.258 233.272 230.816 232.219 233.484 232.211H255.584C258.251 232.22 260.809 233.272 262.71 235.143C264.611 237.014 265.704 239.555 265.755 242.222C265.755 242.166 265.763 242.111 265.763 242.054C265.755 239.357 264.68 236.772 262.773 234.865C260.865 232.958 258.281 231.883 255.584 231.875Z" fill="#226EE5"/>
<path d="M246.578 239.57H242.492C240.952 239.57 239.703 240.819 239.703 242.359V318.25C239.703 319.791 240.952 321.039 242.492 321.039H246.578C248.118 321.039 249.367 319.791 249.367 318.25V242.359C249.367 240.819 248.118 239.57 246.578 239.57Z" fill="#3C00BC"/>
<path d="M247.75 244.648H241.309C240.992 244.648 240.734 244.906 240.734 245.223V246.171C240.734 246.489 240.992 246.746 241.309 246.746H247.75C248.068 246.746 248.325 246.489 248.325 246.171V245.223C248.325 244.906 248.068 244.648 247.75 244.648Z" fill="#1159C9"/>
<path d="M247.75 244.648H241.309C240.992 244.648 240.734 244.906 240.734 245.223V246.064C240.734 246.382 240.992 246.639 241.309 246.639H247.75C248.068 246.639 248.325 246.382 248.325 246.064V245.223C248.325 244.906 248.068 244.648 247.75 244.648Z" fill="#111B54"/>
<path d="M247.75 250.43H241.309C240.992 250.43 240.734 250.687 240.734 251.005V251.953C240.734 252.27 240.992 252.528 241.309 252.528H247.75C248.068 252.528 248.325 252.27 248.325 251.953V251.005C248.325 250.687 248.068 250.43 247.75 250.43Z" fill="#1159C9"/>
<path d="M247.75 250.43H241.309C240.992 250.43 240.734 250.687 240.734 251.005V251.846C240.734 252.163 240.992 252.421 241.309 252.421H247.75C248.068 252.421 248.325 252.163 248.325 251.846V251.005C248.325 250.687 248.068 250.43 247.75 250.43Z" fill="#111B54"/>
<path d="M247.75 255.914H241.309C240.992 255.914 240.734 256.171 240.734 256.489V257.437C240.734 257.755 240.992 258.012 241.309 258.012H247.75C248.068 258.012 248.325 257.755 248.325 257.437V256.489C248.325 256.171 248.068 255.914 247.75 255.914Z" fill="#1159C9"/>
<path d="M247.75 255.914H241.309C240.992 255.914 240.734 256.171 240.734 256.489V257.33C240.734 257.648 240.992 257.905 241.309 257.905H247.75C248.068 257.905 248.325 257.648 248.325 257.33V256.489C248.325 256.171 248.068 255.914 247.75 255.914Z" fill="#111B54"/>
<path d="M247.75 261.398H241.309C240.992 261.398 240.734 261.656 240.734 261.973V262.921C240.734 263.239 240.992 263.496 241.309 263.496H247.75C248.068 263.496 248.325 263.239 248.325 262.921V261.973C248.325 261.656 248.068 261.398 247.75 261.398Z" fill="#1159C9"/>
<path d="M247.75 261.398H241.309C240.992 261.398 240.734 261.656 240.734 261.973V262.814C240.734 263.132 240.992 263.389 241.309 263.389H247.75C248.068 263.389 248.325 263.132 248.325 262.814V261.973C248.325 261.656 248.068 261.398 247.75 261.398Z" fill="#111B54"/>
<path d="M247.75 266.883H241.309C240.992 266.883 240.734 267.14 240.734 267.458V268.406C240.734 268.723 240.992 268.981 241.309 268.981H247.75C248.068 268.981 248.325 268.723 248.325 268.406V267.458C248.325 267.14 248.068 266.883 247.75 266.883Z" fill="#1159C9"/>
<path d="M247.75 266.883H241.309C240.992 266.883 240.734 267.14 240.734 267.458V268.299C240.734 268.616 240.992 268.874 241.309 268.874H247.75C248.068 268.874 248.325 268.616 248.325 268.299V267.458C248.325 267.14 248.068 266.883 247.75 266.883Z" fill="#111B54"/>
<path d="M247.75 272.367H241.309C240.992 272.367 240.734 272.625 240.734 272.942V273.89C240.734 274.208 240.992 274.465 241.309 274.465H247.75C248.068 274.465 248.325 274.208 248.325 273.89V272.942C248.325 272.625 248.068 272.367 247.75 272.367Z" fill="#1159C9"/>
<path d="M247.75 272.367H241.309C240.992 272.367 240.734 272.625 240.734 272.942V273.783C240.734 274.101 240.992 274.358 241.309 274.358H247.75C248.068 274.358 248.325 274.101 248.325 273.783V272.942C248.325 272.625 248.068 272.367 247.75 272.367Z" fill="#111B54"/>
<path d="M247.75 277.852H241.309C240.992 277.852 240.734 278.109 240.734 278.427V279.375C240.734 279.692 240.992 279.95 241.309 279.95H247.75C248.068 279.95 248.325 279.692 248.325 279.375V278.427C248.325 278.109 248.068 277.852 247.75 277.852Z" fill="#1159C9"/>
<path d="M247.75 277.852H241.309C240.992 277.852 240.734 278.109 240.734 278.427V279.268C240.734 279.585 240.992 279.843 241.309 279.843H247.75C248.068 279.843 248.325 279.585 248.325 279.268V278.427C248.325 278.109 248.068 277.852 247.75 277.852Z" fill="#111B54"/>
<path d="M247.75 283.336H241.309C240.992 283.336 240.734 283.593 240.734 283.911V284.859C240.734 285.177 240.992 285.434 241.309 285.434H247.75C248.068 285.434 248.325 285.177 248.325 284.859V283.911C248.325 283.593 248.068 283.336 247.75 283.336Z" fill="#1159C9"/>
<path d="M247.75 283.336H241.309C240.992 283.336 240.734 283.593 240.734 283.911V284.752C240.734 285.07 240.992 285.327 241.309 285.327H247.75C248.068 285.327 248.325 285.07 248.325 284.752V283.911C248.325 283.593 248.068 283.336 247.75 283.336Z" fill="#111B54"/>
<path d="M247.75 288.828H241.309C240.992 288.828 240.734 289.086 240.734 289.403V290.351C240.734 290.669 240.992 290.926 241.309 290.926H247.75C248.068 290.926 248.325 290.669 248.325 290.351V289.403C248.325 289.086 248.068 288.828 247.75 288.828Z" fill="#1159C9"/>
<path d="M247.75 288.828H241.309C240.992 288.828 240.734 289.086 240.734 289.403V290.244C240.734 290.562 240.992 290.819 241.309 290.819H247.75C248.068 290.819 248.325 290.562 248.325 290.244V289.403C248.325 289.086 248.068 288.828 247.75 288.828Z" fill="#111B54"/>
<path d="M247.75 294.312H241.309C240.992 294.312 240.734 294.57 240.734 294.887V295.836C240.734 296.153 240.992 296.411 241.309 296.411H247.75C248.068 296.411 248.325 296.153 248.325 295.836V294.887C248.325 294.57 248.068 294.312 247.75 294.312Z" fill="#1159C9"/>
<path d="M247.75 294.312H241.309C240.992 294.312 240.734 294.57 240.734 294.887V295.729C240.734 296.046 240.992 296.304 241.309 296.304H247.75C248.068 296.304 248.325 296.046 248.325 295.729V294.887C248.325 294.57 248.068 294.312 247.75 294.312Z" fill="#111B54"/>
<path d="M247.75 299.797H241.309C240.992 299.797 240.734 300.054 240.734 300.372V301.32C240.734 301.637 240.992 301.895 241.309 301.895H247.75C248.068 301.895 248.325 301.637 248.325 301.32V300.372C248.325 300.054 248.068 299.797 247.75 299.797Z" fill="#1159C9"/>
<path d="M247.75 299.797H241.309C240.992 299.797 240.734 300.054 240.734 300.372V301.213C240.734 301.53 240.992 301.788 241.309 301.788H247.75C248.068 301.788 248.325 301.53 248.325 301.213V300.372C248.325 300.054 248.068 299.797 247.75 299.797Z" fill="#111B54"/>
<path d="M247.75 305.281H241.309C240.992 305.281 240.734 305.539 240.734 305.856V306.804C240.734 307.122 240.992 307.379 241.309 307.379H247.75C248.068 307.379 248.325 307.122 248.325 306.804V305.856C248.325 305.539 248.068 305.281 247.75 305.281Z" fill="#1159C9"/>
<path d="M247.75 305.281H241.309C240.992 305.281 240.734 305.539 240.734 305.856V306.697C240.734 307.015 240.992 307.272 241.309 307.272H247.75C248.068 307.272 248.325 307.015 248.325 306.697V305.856C248.325 305.539 248.068 305.281 247.75 305.281Z" fill="#111B54"/>
<path d="M247.75 310.766H241.309C240.992 310.766 240.734 311.023 240.734 311.341V312.289C240.734 312.606 240.992 312.864 241.309 312.864H247.75C248.068 312.864 248.325 312.606 248.325 312.289V311.341C248.325 311.023 248.068 310.766 247.75 310.766Z" fill="#1159C9"/>
<path d="M247.75 310.766H241.309C240.992 310.766 240.734 311.023 240.734 311.341V312.182C240.734 312.499 240.992 312.757 241.309 312.757H247.75C248.068 312.757 248.325 312.499 248.325 312.182V311.341C248.325 311.023 248.068 310.766 247.75 310.766Z" fill="#111B54"/>
<path d="M336.984 256.873C335.807 256.873 334.656 256.524 333.677 255.87C332.698 255.216 331.935 254.287 331.485 253.199C331.034 252.112 330.916 250.915 331.145 249.76C331.375 248.606 331.942 247.545 332.774 246.712C333.607 245.88 334.667 245.313 335.822 245.083C336.976 244.853 338.173 244.971 339.261 245.422C340.348 245.872 341.278 246.635 341.932 247.614C342.586 248.593 342.935 249.744 342.935 250.921C342.935 252.499 342.308 254.013 341.192 255.129C340.076 256.245 338.563 256.872 336.984 256.873ZM336.984 246.733C336.156 246.733 335.346 246.978 334.657 247.438C333.968 247.898 333.431 248.552 333.114 249.318C332.797 250.083 332.714 250.925 332.876 251.738C333.037 252.55 333.436 253.296 334.022 253.882C334.608 254.468 335.354 254.867 336.166 255.028C336.979 255.19 337.821 255.107 338.586 254.79C339.352 254.473 340.006 253.936 340.466 253.247C340.926 252.558 341.171 251.748 341.171 250.92C341.171 249.809 340.73 248.745 339.945 247.959C339.159 247.174 338.095 246.733 336.984 246.733Z" fill="#8D59FF"/>
<path d="M336.859 242.523V254.482C336.851 257.04 335.832 259.49 334.023 261.299C332.215 263.107 329.764 264.126 327.207 264.133C324.649 264.126 322.199 263.107 320.39 261.299C318.582 259.49 317.562 257.04 317.555 254.482V242.523H336.859Z" fill="#8D59FF"/>
<path d="M336.087 262.82H318.323C317.825 262.82 317.422 263.224 317.422 263.721V264.548C317.422 265.046 317.825 265.449 318.323 265.449H336.087C336.584 265.449 336.988 265.046 336.988 264.548V263.721C336.988 263.224 336.584 262.82 336.087 262.82Z" fill="#8D59FF"/>
<path d="M136.189 70.4255H8.40992L8.29293 69.8495C7.712 67.0178 7.99935 64.0768 9.11739 61.4111C10.2354 58.7455 12.1321 56.4794 14.5591 54.9094C16.9862 53.3394 19.8307 52.5386 22.7204 52.6117C25.6101 52.6849 28.4104 53.6287 30.7549 55.3195C32.3208 47.5443 36.3746 40.4898 42.3038 35.2219C48.233 29.954 55.7155 26.7589 63.621 26.1191C71.5265 25.4793 79.4255 27.4297 86.1246 31.6756C92.8238 35.9215 97.9591 42.2322 100.755 49.6545C104.108 46.5969 108.343 44.6787 112.853 44.1748C117.363 43.6708 121.917 44.6068 125.863 46.8488C129.808 49.0909 132.943 52.5239 134.819 56.6563C136.694 60.7887 137.214 65.4086 136.304 69.8545L136.189 70.4255ZM9.59993 68.9875H135C135.732 64.7784 135.102 60.4455 133.2 56.6198C131.298 52.7941 128.225 49.6756 124.427 47.7184C120.629 45.7612 116.306 45.0677 112.087 45.7388C107.868 46.4099 103.973 48.4106 100.97 51.4495L100.153 52.2745L99.7759 51.1745C97.2489 43.7841 92.3287 37.448 85.7944 33.1696C79.26 28.8911 71.4851 26.9148 63.7008 27.5537C55.9166 28.1926 48.5679 31.4102 42.8187 36.6968C37.0694 41.9834 33.2481 49.037 31.9599 56.7405L31.7509 57.9995L30.7809 57.1685C28.9063 55.5564 26.6084 54.5162 24.1601 54.1716C21.7118 53.827 19.2161 54.1923 16.9693 55.2243C14.7225 56.2563 12.8192 57.9115 11.4854 59.9933C10.1516 62.0751 9.4434 64.4961 9.44493 66.9685C9.44514 67.6445 9.49763 68.3195 9.60193 68.9875H9.59993Z" fill="#844DF9"/>
<path d="M142.942 42.5067H131.355C130.623 42.5059 129.921 42.2147 129.404 41.6971C128.886 41.1795 128.595 40.4777 128.594 39.7457V32.6567H125.536C125.034 32.6569 124.544 32.5083 124.127 32.2298C123.71 31.9512 123.385 31.5552 123.193 31.0919C123.001 30.6286 122.951 30.1187 123.049 29.6268C123.147 29.135 123.388 28.6832 123.743 28.3287L135.356 16.7167C135.839 16.2566 136.481 16 137.148 16C137.816 16 138.458 16.2566 138.941 16.7167L150.554 28.3287C150.908 28.6834 151.149 29.1353 151.247 29.6271C151.345 30.1189 151.294 30.6286 151.102 31.0917C150.91 31.5549 150.585 31.9508 150.168 32.2293C149.751 32.5079 149.261 32.6566 148.76 32.6567H145.702V39.7457C145.701 40.4775 145.41 41.1792 144.893 41.6968C144.375 42.2143 143.674 42.5056 142.942 42.5067ZM137.149 17.4127C137.005 17.4122 136.862 17.4405 136.729 17.4958C136.596 17.5511 136.475 17.6323 136.374 17.7347L124.761 29.3457C124.609 29.4996 124.506 29.6949 124.465 29.907C124.424 30.1191 124.446 30.3388 124.528 30.5385C124.611 30.7382 124.751 30.9091 124.93 31.0299C125.109 31.1507 125.32 31.216 125.536 31.2177H130.036V39.7447C130.037 40.0951 130.176 40.431 130.424 40.6786C130.672 40.9262 131.009 41.0654 131.359 41.0657H142.946C143.296 41.0654 143.632 40.9262 143.88 40.6786C144.128 40.431 144.268 40.0951 144.269 39.7447V31.2177H148.769C148.985 31.2162 149.196 31.151 149.376 31.0303C149.555 30.9096 149.695 30.7387 149.778 30.5389C149.86 30.3392 149.882 30.1195 149.841 29.9072C149.8 29.695 149.697 29.4997 149.545 29.3457L137.925 17.7337C137.823 17.6313 137.702 17.5502 137.569 17.4949C137.436 17.4396 137.293 17.4123 137.149 17.4127Z" fill="#844DF9"/>
<path d="M315.247 24.2103H262.87L262.821 23.9743C262.743 23.5865 262.704 23.1919 262.703 22.7963C262.702 21.7124 263.001 20.6493 263.566 19.7243C264.131 18.7993 264.94 18.0482 265.905 17.5541C266.87 17.0599 267.952 16.8417 269.033 16.9236C270.114 17.0055 271.151 17.3844 272.03 18.0183C272.672 14.8312 274.334 11.9395 276.764 9.78013C279.195 7.62077 282.262 6.31104 285.502 6.04881C288.743 5.78657 291.981 6.58607 294.727 8.32653C297.473 10.067 299.578 12.6539 300.724 15.6963C302.1 14.4468 303.835 13.6636 305.682 13.4587C307.529 13.2538 309.393 13.6375 311.009 14.5551C312.625 15.4727 313.91 16.8774 314.68 18.5685C315.45 20.2597 315.667 22.1509 315.298 23.9723L315.247 24.2103ZM263.357 23.6213H314.757C314.837 23.1549 314.877 22.6825 314.877 22.2093C314.877 20.5786 314.392 18.9847 313.484 17.6303C312.576 16.2758 311.286 15.2219 309.777 14.6027C308.269 13.9834 306.61 13.8267 305.012 14.1525C303.415 14.4783 301.95 15.2719 300.804 16.4323L300.469 16.7713L300.315 16.3203C299.28 13.2898 297.263 10.6913 294.585 8.93664C291.906 7.18194 288.718 6.37137 285.526 6.63336C282.335 6.89535 279.322 8.21492 276.965 10.383C274.608 12.551 273.042 15.4436 272.515 18.6023L272.429 19.1183L272.029 18.7773C271.206 18.0736 270.187 17.6388 269.11 17.5316C268.032 17.4244 266.947 17.6498 266.002 18.1776C265.056 18.7053 264.295 19.5101 263.821 20.4835C263.346 21.457 263.181 22.5524 263.348 23.6223L263.357 23.6213Z" fill="#844DF9"/>
<path d="M289.628 21.4315H284.878C284.578 21.4312 284.29 21.3119 284.078 21.0997C283.866 20.8874 283.747 20.5996 283.746 20.2995V17.3995H282.492C282.287 17.3993 282.086 17.3383 281.915 17.224C281.744 17.1097 281.611 16.9473 281.532 16.7574C281.454 16.5675 281.433 16.3585 281.473 16.1568C281.513 15.9552 281.612 15.7699 281.757 15.6245L286.517 10.8645C286.715 10.6757 286.978 10.5703 287.252 10.5703C287.525 10.5703 287.788 10.6757 287.986 10.8645L292.747 15.6245C292.893 15.7698 292.992 15.955 293.033 16.1568C293.073 16.3586 293.053 16.5679 292.974 16.758C292.895 16.9481 292.762 17.1106 292.591 17.2248C292.419 17.339 292.218 17.3998 292.012 17.3995H290.758V20.2995C290.758 20.5992 290.639 20.8865 290.427 21.0987C290.215 21.3108 289.928 21.4304 289.628 21.4315ZM287.255 11.1445C287.196 11.1444 287.138 11.1561 287.083 11.1787C287.029 11.2014 286.979 11.2346 286.937 11.2765L282.177 16.0365C282.114 16.0992 282.072 16.1792 282.054 16.2664C282.037 16.3535 282.045 16.4439 282.079 16.526C282.113 16.6081 282.171 16.6783 282.245 16.7277C282.319 16.7771 282.405 16.8035 282.494 16.8035H284.338V20.3035C284.339 20.4471 284.396 20.5847 284.497 20.6861C284.599 20.7875 284.737 20.8445 284.88 20.8445H289.628C289.7 20.8446 289.77 20.8307 289.836 20.8036C289.902 20.7765 289.961 20.7367 290.012 20.6865C290.062 20.6362 290.102 20.5765 290.13 20.5108C290.157 20.4451 290.171 20.3747 290.171 20.3035V16.8085H292.015C292.104 16.8085 292.191 16.7821 292.265 16.7327C292.339 16.6833 292.396 16.6131 292.43 16.531C292.464 16.4489 292.473 16.3585 292.456 16.2714C292.438 16.1842 292.395 16.1042 292.332 16.0415L287.572 11.2815C287.531 11.2388 287.481 11.2047 287.427 11.1814C287.372 11.158 287.313 11.1458 287.253 11.1455L287.255 11.1445Z" fill="#844DF9"/>
<path opacity="0.3" d="M219.992 64.8906H42V65.7556H219.992V64.8906Z" fill="#34DCE7"/>
<path opacity="0.3" d="M42 64.8906H219.992V165.968C219.992 167.961 219.2 169.873 217.79 171.283C216.381 172.693 214.469 173.485 212.475 173.485H49.517C47.5234 173.485 45.6114 172.693 44.2017 171.283C42.792 169.873 42 167.961 42 165.968V64.8906Z" fill="#5405FF"/>
<path opacity="0.3" d="M152.46 87.3359H57.6797V121.358H152.46V87.3359Z" fill="#5405FF"/>
<path opacity="0.3" d="M91.2342 128.078H57.9062V138.633H91.2342V128.078Z" fill="#5405FF"/>
<path opacity="0.3" d="M152.693 128.078H96.2422V138.633H152.693V128.078Z" fill="#5405FF"/>
<path opacity="0.3" d="M210.572 87.7109H158.977V102.44H210.572V87.7109Z" fill="#5405FF"/>
<path opacity="0.3" d="M210.568 144.977H57.9062V159.706H210.568V144.977Z" fill="#5405FF"/>
<path opacity="0.3" d="M210.572 106.289H158.977V139.805H210.572V106.289Z" fill="#5405FF"/>
<path opacity="0.3" d="M219.992 64.8906H42V82.6466H219.992V64.8906Z" fill="#5405FF"/>
<path opacity="0.66" d="M219.992 82.3047H42V82.6467H219.992V82.3047Z" fill="#5405FF"/>
<path d="M49.1544 76.2384C50.767 76.2384 52.0744 74.9311 52.0744 73.3184C52.0744 71.7058 50.767 70.3984 49.1544 70.3984C47.5417 70.3984 46.2344 71.7058 46.2344 73.3184C46.2344 74.9311 47.5417 76.2384 49.1544 76.2384Z" fill="#5E23DD"/>
<path d="M57.9122 76.2384C59.5249 76.2384 60.8322 74.9311 60.8322 73.3184C60.8322 71.7058 59.5249 70.3984 57.9122 70.3984C56.2995 70.3984 54.9922 71.7058 54.9922 73.3184C54.9922 74.9311 56.2995 76.2384 57.9122 76.2384Z" fill="#5E23DD"/>
<path d="M66.5997 76.2384C68.2124 76.2384 69.5197 74.9311 69.5197 73.3184C69.5197 71.7058 68.2124 70.3984 66.5997 70.3984C64.987 70.3984 63.6797 71.7058 63.6797 73.3184C63.6797 74.9311 64.987 76.2384 66.5997 76.2384Z" fill="#5E23DD"/>
<path opacity="0.3" d="M49.6254 85.1875H48.6824C47.3304 85.1875 46.2344 86.2835 46.2344 87.6355V164.02C46.2344 165.371 47.3304 166.467 48.6824 166.467H49.6254C50.9774 166.467 52.0734 165.371 52.0734 164.02V87.6355C52.0734 86.2835 50.9774 85.1875 49.6254 85.1875Z" fill="#5405FF"/>
<path d="M49.1363 87.7109H48.7592C48.2191 87.7109 47.7812 88.1488 47.7812 88.6889V108.061C47.7812 108.601 48.2191 109.039 48.7592 109.039H49.1363C49.6764 109.039 50.1142 108.601 50.1142 108.061V88.6889C50.1142 88.1488 49.6764 87.7109 49.1363 87.7109Z" fill="#5405FF"/>
<path d="M87.6341 130.508H76.4531" stroke="#B390FF" stroke-linecap="round" stroke-linejoin="round"/>
<path d="M86.5957 135.43H60.8047" stroke="#B390FF" stroke-linecap="round" stroke-linejoin="round"/>
<path d="M99.1172 130.508H103.738" stroke="#B390FF" stroke-linecap="round" stroke-linejoin="round"/>
<path d="M107.539 130.508H112.16" stroke="#B390FF" stroke-linecap="round" stroke-linejoin="round"/>
<path d="M115.961 130.508H120.582" stroke="#B390FF" stroke-linecap="round" stroke-linejoin="round"/>
<path d="M124.391 130.508H129.012" stroke="#B390FF" stroke-linecap="round" stroke-linejoin="round"/>
<path d="M132.812 130.508H137.433" stroke="#B390FF" stroke-linecap="round" stroke-linejoin="round"/>
<path d="M141.234 130.508H145.855" stroke="#B390FF" stroke-linecap="round" stroke-linejoin="round"/>
<path d="M99.1172 134.102H102.099" stroke="#B390FF" stroke-linecap="round" stroke-linejoin="round"/>
<path d="M106.047 134.102H109.029" stroke="#B390FF" stroke-linecap="round" stroke-linejoin="round"/>
<path d="M112.984 134.102H115.966" stroke="#B390FF" stroke-linecap="round" stroke-linejoin="round"/>
<path d="M119.914 134.102H122.896" stroke="#B390FF" stroke-linecap="round" stroke-linejoin="round"/>
<path d="M126.844 134.102H129.826" stroke="#B390FF" stroke-linecap="round" stroke-linejoin="round"/>
<path d="M133.781 134.102H136.763" stroke="#B390FF" stroke-linecap="round" stroke-linejoin="round"/>
<path d="M140.711 134.102H143.693" stroke="#B390FF" stroke-linecap="round" stroke-linejoin="round"/>
<path d="M64.4539 148.734L61.1719 152.016L64.3259 155.17" stroke="#B390FF" stroke-linecap="round" stroke-linejoin="round"/>
<path d="M67.7351 148.734L64.4531 152.016L67.6071 155.17" stroke="#B390FF" stroke-linecap="round" stroke-linejoin="round"/>
<path d="M167.594 91.8594L164.312 95.1424L167.466 98.2964" stroke="#B390FF" stroke-linecap="round" stroke-linejoin="round"/>
<path d="M162.672 110.117H188.649" stroke="#B390FF" stroke-linecap="round" stroke-linejoin="round"/>
<path d="M162.672 113.297H172.879" stroke="#B390FF" stroke-linecap="round" stroke-linejoin="round"/>
<path d="M162.672 118.289H172.879" stroke="#B390FF" stroke-linecap="round" stroke-linejoin="round"/>
<path d="M162.672 123.281H172.879" stroke="#B390FF" stroke-linecap="round" stroke-linejoin="round"/>
<path d="M162.672 128.273H172.879" stroke="#B390FF" stroke-linecap="round" stroke-linejoin="round"/>
<path d="M203.177 116.352H196.258" stroke="#B390FF" stroke-linecap="round" stroke-linejoin="round"/>
<path d="M203.177 119.188H196.258" stroke="#B390FF" stroke-linecap="round" stroke-linejoin="round"/>
<path d="M203.177 122.031H196.258" stroke="#B390FF" stroke-linecap="round" stroke-linejoin="round"/>
<path d="M203.177 124.867H196.258" stroke="#B390FF" stroke-linecap="round" stroke-linejoin="round"/>
<path d="M203.177 127.703H196.258" stroke="#B390FF" stroke-linecap="round" stroke-linejoin="round"/>
<path d="M203.177 130.547H196.258" stroke="#B390FF" stroke-linecap="round" stroke-linejoin="round"/>
<path d="M203.177 133.383H196.258" stroke="#B390FF" stroke-linecap="round" stroke-linejoin="round"/>
<path d="M203.177 136.227H196.258" stroke="#B390FF" stroke-linecap="round" stroke-linejoin="round"/>
<path d="M75.8594 148.734H145.851" stroke="#B390FF" stroke-linecap="round" stroke-linejoin="round"/>
<path d="M75.8594 151.953H118.271" stroke="#B390FF" stroke-linecap="round" stroke-linejoin="round"/>
<path d="M75.8594 156.484H118.271" stroke="#B390FF" stroke-linecap="round" stroke-linejoin="round"/>
<path opacity="0.3" d="M106.68 167.609H190.84V239.125C190.84 241.119 190.048 243.031 188.638 244.441C187.228 245.85 185.316 246.642 183.323 246.642H114.197C112.203 246.642 110.291 245.85 108.881 244.441C107.472 243.031 106.68 241.119 106.68 239.125V167.609Z" fill="#5405FF"/>
<path opacity="0.3" d="M187.237 184.219H118.258V208.98H187.237V184.219Z" fill="#34DCE7"/>
<path opacity="0.3" d="M142.513 213.594H118.258V221.276H142.513V213.594Z" fill="#34DCE7"/>
<path opacity="0.3" d="M187.24 213.594H146.156V221.276H187.24V213.594Z" fill="#34DCE7"/>
<path opacity="0.3" d="M190.84 167.609H106.68V180.532H190.84V167.609Z" fill="#34DCE7"/>
<path opacity="0.66" d="M190.84 180.281H106.68V180.53H190.84V180.281Z" fill="#34DCE7"/>
<path d="M111.883 175.867C113.056 175.867 114.008 174.916 114.008 173.742C114.008 172.569 113.056 171.617 111.883 171.617C110.709 171.617 109.758 172.569 109.758 173.742C109.758 174.916 110.709 175.867 111.883 175.867Z" fill="#2A5FD1"/>
<path d="M118.258 175.867C119.431 175.867 120.383 174.916 120.383 173.742C120.383 172.569 119.431 171.617 118.258 171.617C117.084 171.617 116.133 172.569 116.133 173.742C116.133 174.916 117.084 175.867 118.258 175.867Z" fill="#2A5FD1"/>
<path d="M124.586 171.617C125.006 171.617 125.417 171.742 125.767 171.975C126.116 172.209 126.388 172.541 126.549 172.929C126.71 173.317 126.752 173.745 126.67 174.157C126.588 174.569 126.386 174.948 126.089 175.245C125.791 175.542 125.413 175.744 125.001 175.826C124.588 175.908 124.161 175.866 123.773 175.705C123.384 175.545 123.053 175.272 122.819 174.923C122.586 174.573 122.461 174.162 122.461 173.742C122.461 173.179 122.685 172.638 123.083 172.24C123.482 171.841 124.022 171.617 124.586 171.617Z" fill="#2A5FD1"/>
<path opacity="0.3" d="M112.425 182.383H111.341C110.467 182.383 109.758 183.092 109.758 183.966V239.954C109.758 240.828 110.467 241.537 111.341 241.537H112.425C113.299 241.537 114.008 240.828 114.008 239.954V183.966C114.008 183.092 113.299 182.383 112.425 182.383Z" fill="#34DCE7"/>
<path d="M111.949 184.219H111.515C111.166 184.219 110.883 184.502 110.883 184.851V199.109C110.883 199.458 111.166 199.741 111.515 199.741H111.949C112.298 199.741 112.581 199.458 112.581 199.109V184.851C112.581 184.502 112.298 184.219 111.949 184.219Z" fill="#34DCE7"/>
<path d="M120.938 187.758H149.983" stroke="#B390FF" stroke-linecap="round" stroke-linejoin="round"/>
<path d="M152.75 187.758H157.473" stroke="#B390FF" stroke-linecap="round" stroke-linejoin="round"/>
<path d="M162.68 187.758H183.295" stroke="#B390FF" stroke-linecap="round" stroke-linejoin="round"/>
<path d="M120.938 190.734H156.06" stroke="#B390FF" stroke-linecap="round" stroke-linejoin="round"/>
<path d="M159.531 190.195H173.809" stroke="#B390FF" stroke-linecap="round" stroke-linejoin="round"/>
<path d="M176.461 190.195H183.73" stroke="#B390FF" stroke-linecap="round" stroke-linejoin="round"/>
<path d="M122.461 194.43H163.983" stroke="#B390FF" stroke-linecap="round" stroke-linejoin="round"/>
<path d="M168.859 194.43H180.089" stroke="#B390FF" stroke-linecap="round" stroke-linejoin="round"/>
<path d="M183.724 197.742H151.609" stroke="#B390FF" stroke-linecap="round" stroke-linejoin="round"/>
<path d="M165.39 202.242H120.938" stroke="#B390FF" stroke-linecap="round" stroke-linejoin="round"/>
<path d="M151.609 205.062H184.484" stroke="#B390FF" stroke-linecap="round" stroke-linejoin="round"/>
<path d="M155.111 206.469H128.07" stroke="#B390FF" stroke-linecap="round" stroke-linejoin="round"/>
<path d="M120.938 197.742H132.733" stroke="#B390FF" stroke-linecap="round" stroke-linejoin="round"/>
<path d="M139.895 215.367H131.758" stroke="#B390FF" stroke-linecap="round" stroke-linejoin="round"/>
<path d="M139.137 218.945H120.367" stroke="#B390FF" stroke-linecap="round" stroke-linejoin="round"/>
<path d="M148.25 215.367H151.613" stroke="#B390FF" stroke-linecap="round" stroke-linejoin="round"/>
<path d="M154.375 215.367H157.738" stroke="#B390FF" stroke-linecap="round" stroke-linejoin="round"/>
<path d="M160.508 215.367H163.871" stroke="#B390FF" stroke-linecap="round" stroke-linejoin="round"/>
<path d="M166.641 215.367H170.004" stroke="#B390FF" stroke-linecap="round" stroke-linejoin="round"/>
<path d="M172.766 215.367H176.129" stroke="#B390FF" stroke-linecap="round" stroke-linejoin="round"/>
<path d="M178.898 215.367H182.261" stroke="#B390FF" stroke-linecap="round" stroke-linejoin="round"/>
<path d="M148.25 217.977H150.42" stroke="#B390FF" stroke-linecap="round" stroke-linejoin="round"/>
<path d="M153.297 217.977H155.467" stroke="#B390FF" stroke-linecap="round" stroke-linejoin="round"/>
<path d="M158.336 217.977H160.506" stroke="#B390FF" stroke-linecap="round" stroke-linejoin="round"/>
<path d="M163.383 217.977H165.553" stroke="#B390FF" stroke-linecap="round" stroke-linejoin="round"/>
<path d="M168.43 217.977H170.6" stroke="#B390FF" stroke-linecap="round" stroke-linejoin="round"/>
<path d="M173.477 217.977H175.647" stroke="#B390FF" stroke-linecap="round" stroke-linejoin="round"/>
<path d="M178.523 217.977H180.693" stroke="#B390FF" stroke-linecap="round" stroke-linejoin="round"/>
<path d="M123.014 231.57L120.625 233.959L122.925 236.259" stroke="#B390FF" stroke-linecap="round" stroke-linejoin="round"/>
<path d="M125.405 231.57L123.016 233.959L125.316 236.259" stroke="#B390FF" stroke-linecap="round" stroke-linejoin="round"/>
<path opacity="0.3" d="M314.898 208.57H382.004V235.136C382.004 236.123 381.81 237.101 381.432 238.013C381.054 238.925 380.501 239.754 379.803 240.452C379.105 241.15 378.276 241.703 377.364 242.081C376.452 242.459 375.475 242.653 374.487 242.653H322.415C320.422 242.653 318.51 241.861 317.1 240.452C315.69 239.042 314.898 237.13 314.898 235.136V208.57Z" fill="#5405FF"/>
<path opacity="0.3" d="M360.814 218.5H321.82V233.308H360.814V218.5Z" fill="#5405FF"/>
<path opacity="0.3" d="M382.004 208.57H314.898V216.298H382.004V208.57Z" fill="#5405FF"/>
<path opacity="0.3" d="M318.009 213.847C318.895 213.847 319.612 213.129 319.612 212.244C319.612 211.358 318.895 210.641 318.009 210.641C317.124 210.641 316.406 211.358 316.406 212.244C316.406 213.129 317.124 213.847 318.009 213.847Z" fill="#5405FF"/>
<path d="M318.014 213.845C317.592 213.845 317.187 213.678 316.887 213.381C316.588 213.084 316.417 212.68 316.414 212.258V212.275C316.414 212.7 316.583 213.108 316.884 213.408C317.184 213.709 317.592 213.878 318.017 213.878C318.442 213.878 318.85 213.709 319.151 213.408C319.451 213.108 319.62 212.7 319.62 212.275V212.258C319.617 212.681 319.446 213.085 319.145 213.383C318.844 213.68 318.437 213.846 318.014 213.845Z" fill="#5405FF"/>
<path opacity="0.3" d="M321.822 213.847C322.707 213.847 323.425 213.129 323.425 212.244C323.425 211.358 322.707 210.641 321.822 210.641C320.936 210.641 320.219 211.358 320.219 212.244C320.219 213.129 320.936 213.847 321.822 213.847Z" fill="#5405FF"/>
<path d="M321.827 213.845C321.404 213.845 320.999 213.678 320.7 213.381C320.4 213.084 320.23 212.68 320.227 212.258V212.275C320.227 212.7 320.395 213.108 320.696 213.408C320.997 213.709 321.404 213.878 321.83 213.878C322.255 213.878 322.662 213.709 322.963 213.408C323.264 213.108 323.433 212.7 323.433 212.275V212.258C323.429 212.681 323.258 213.085 322.957 213.383C322.656 213.68 322.25 213.846 321.827 213.845Z" fill="#5405FF"/>
<path opacity="0.3" d="M325.603 213.847C326.488 213.847 327.206 213.129 327.206 212.244C327.206 211.358 326.488 210.641 325.603 210.641C324.718 210.641 324 211.358 324 212.244C324 213.129 324.718 213.847 325.603 213.847Z" fill="#5405FF"/>
<path d="M325.608 213.845C325.186 213.845 324.781 213.678 324.481 213.381C324.181 213.084 324.011 212.68 324.008 212.258V212.275C324.008 212.699 324.176 213.106 324.476 213.406C324.776 213.706 325.183 213.875 325.608 213.875C326.032 213.875 326.439 213.706 326.739 213.406C327.039 213.106 327.208 212.699 327.208 212.275V212.258C327.204 212.68 327.034 213.084 326.735 213.381C326.435 213.678 326.03 213.845 325.608 213.845Z" fill="#5405FF"/>
<path opacity="0.66" d="M382.004 216.148H314.898V216.297H382.004V216.148Z" fill="#5405FF"/>
<path d="M318.013 213.511C318.715 213.511 319.284 212.942 319.284 212.24C319.284 211.538 318.715 210.969 318.013 210.969C317.311 210.969 316.742 211.538 316.742 212.24C316.742 212.942 317.311 213.511 318.013 213.511Z" fill="#5405FF"/>
<path d="M321.826 213.511C322.528 213.511 323.097 212.942 323.097 212.24C323.097 211.538 322.528 210.969 321.826 210.969C321.124 210.969 320.555 211.538 320.555 212.24C320.555 212.942 321.124 213.511 321.826 213.511Z" fill="#DBFF0E"/>
<path d="M325.607 213.511C326.309 213.511 326.878 212.942 326.878 212.24C326.878 211.538 326.309 210.969 325.607 210.969C324.905 210.969 324.336 211.538 324.336 212.24C324.336 212.942 324.905 213.511 325.607 213.511Z" fill="#FF2995"/>
<path opacity="0.3" d="M318.218 217.406H317.807C317.219 217.406 316.742 217.883 316.742 218.471V238.536C316.742 239.124 317.219 239.601 317.807 239.601H318.218C318.806 239.601 319.283 239.124 319.283 238.536V218.471C319.283 217.883 318.806 217.406 318.218 217.406Z" fill="#5405FF"/>
<path d="M318.003 218.5H317.84C317.605 218.5 317.414 218.691 317.414 218.926V227.357C317.414 227.592 317.605 227.783 317.84 227.783H318.003C318.238 227.783 318.429 227.592 318.429 227.357V218.926C318.429 218.691 318.238 218.5 318.003 218.5Z" fill="#5405FF"/>
<path d="M335.554 220.088H323.278C323.223 220.088 323.17 220.066 323.131 220.027C323.092 219.988 323.07 219.935 323.07 219.88C323.07 219.825 323.092 219.772 323.131 219.733C323.17 219.694 323.223 219.672 323.278 219.672H335.554C335.609 219.672 335.662 219.694 335.701 219.733C335.74 219.772 335.762 219.825 335.762 219.88C335.762 219.935 335.74 219.988 335.701 220.027C335.662 220.066 335.609 220.088 335.554 220.088Z" fill="#B390FF"/>
<path d="M338.172 220.088H336.521C336.465 220.088 336.412 220.066 336.373 220.027C336.334 219.988 336.312 219.935 336.312 219.88C336.312 219.825 336.334 219.772 336.373 219.733C336.412 219.694 336.465 219.672 336.521 219.672H338.172C338.227 219.672 338.28 219.694 338.319 219.733C338.358 219.772 338.38 219.825 338.38 219.88C338.38 219.935 338.358 219.988 338.319 220.027C338.28 220.066 338.227 220.088 338.172 220.088Z" fill="#B390FF"/>
<path d="M354.875 220.088H339.989C339.934 220.088 339.881 220.066 339.842 220.027C339.803 219.988 339.781 219.935 339.781 219.88C339.781 219.825 339.803 219.772 339.842 219.733C339.881 219.694 339.934 219.672 339.989 219.672H354.876C354.931 219.672 354.984 219.694 355.023 219.733C355.062 219.772 355.084 219.825 355.084 219.88C355.084 219.935 355.062 219.988 355.023 220.027C354.984 220.066 354.931 220.088 354.876 220.088H354.875Z" fill="#B390FF"/>
<path d="M337.678 221.135H323.278C323.223 221.135 323.17 221.113 323.131 221.074C323.092 221.035 323.07 220.982 323.07 220.927C323.07 220.872 323.092 220.819 323.131 220.78C323.17 220.741 323.223 220.719 323.278 220.719H337.678C337.733 220.719 337.786 220.741 337.825 220.78C337.864 220.819 337.886 220.872 337.886 220.927C337.886 220.982 337.864 221.035 337.825 221.074C337.786 221.113 337.733 221.135 337.678 221.135Z" fill="#B390FF"/>
<path d="M351.561 220.947H338.888C338.833 220.947 338.78 220.925 338.741 220.886C338.702 220.847 338.68 220.794 338.68 220.739C338.68 220.684 338.702 220.631 338.741 220.592C338.78 220.553 338.833 220.531 338.888 220.531H351.561C351.616 220.531 351.669 220.553 351.708 220.592C351.747 220.631 351.769 220.684 351.769 220.739C351.769 220.794 351.747 220.847 351.708 220.886C351.669 220.925 351.616 220.947 351.561 220.947Z" fill="#B390FF"/>
<path d="M355.029 220.947H352.489C352.434 220.947 352.381 220.925 352.342 220.886C352.303 220.847 352.281 220.794 352.281 220.739C352.281 220.684 352.303 220.631 352.342 220.592C352.381 220.553 352.434 220.531 352.489 220.531H355.029C355.084 220.531 355.137 220.553 355.176 220.592C355.215 220.631 355.237 220.684 355.237 220.739C355.237 220.794 355.215 220.847 355.176 220.886C355.137 220.925 355.084 220.947 355.029 220.947Z" fill="#B390FF"/>
<path d="M340.446 222.425H323.809C323.781 222.427 323.752 222.423 323.725 222.414C323.698 222.404 323.673 222.389 323.652 222.37C323.631 222.35 323.615 222.326 323.603 222.3C323.592 222.274 323.586 222.245 323.586 222.217C323.586 222.188 323.592 222.16 323.603 222.133C323.615 222.107 323.631 222.084 323.652 222.064C323.673 222.044 323.698 222.029 323.725 222.02C323.752 222.01 323.781 222.006 323.809 222.008H340.446C340.475 222.006 340.504 222.01 340.531 222.02C340.558 222.029 340.582 222.044 340.603 222.064C340.624 222.084 340.641 222.107 340.652 222.133C340.664 222.16 340.67 222.188 340.67 222.217C340.67 222.245 340.664 222.274 340.652 222.3C340.641 222.326 340.624 222.35 340.603 222.37C340.582 222.389 340.558 222.404 340.531 222.414C340.504 222.423 340.475 222.427 340.446 222.425Z" fill="#B390FF"/>
<path d="M353.758 222.425H349.833C349.804 222.427 349.776 222.423 349.749 222.414C349.721 222.404 349.697 222.389 349.676 222.37C349.655 222.35 349.638 222.326 349.627 222.3C349.615 222.274 349.609 222.245 349.609 222.217C349.609 222.188 349.615 222.16 349.627 222.133C349.638 222.107 349.655 222.084 349.676 222.064C349.697 222.044 349.721 222.029 349.749 222.02C349.776 222.01 349.804 222.006 349.833 222.008H353.758C353.786 222.006 353.815 222.01 353.842 222.02C353.869 222.029 353.894 222.044 353.915 222.064C353.936 222.084 353.953 222.107 353.964 222.133C353.975 222.16 353.981 222.188 353.981 222.217C353.981 222.245 353.975 222.274 353.964 222.3C353.953 222.326 353.936 222.35 353.915 222.37C353.894 222.389 353.869 222.404 353.842 222.414C353.815 222.423 353.786 222.427 353.758 222.425Z" fill="#B390FF"/>
<path d="M355.031 223.581H336.124C336.071 223.577 336.022 223.554 335.986 223.515C335.95 223.476 335.93 223.425 335.93 223.373C335.93 223.32 335.95 223.269 335.986 223.23C336.022 223.191 336.071 223.168 336.124 223.164H355.031C355.084 223.168 355.133 223.191 355.17 223.23C355.206 223.269 355.226 223.32 355.226 223.373C355.226 223.425 355.206 223.476 355.17 223.515C355.133 223.554 355.084 223.577 355.031 223.581Z" fill="#B390FF"/>
<path d="M340.941 225.152H323.279C323.224 225.152 323.171 225.13 323.132 225.091C323.092 225.052 323.07 224.999 323.07 224.943C323.07 224.888 323.092 224.835 323.132 224.796C323.171 224.756 323.224 224.734 323.279 224.734H340.941C340.997 224.734 341.05 224.756 341.089 224.796C341.128 224.835 341.15 224.888 341.15 224.943C341.15 224.999 341.128 225.052 341.089 225.091C341.05 225.13 340.997 225.152 340.941 225.152Z" fill="#B390FF"/>
<path d="M355.297 226.144H336.124C336.071 226.14 336.022 226.116 335.986 226.078C335.95 226.039 335.93 225.988 335.93 225.935C335.93 225.882 335.95 225.831 335.986 225.792C336.022 225.754 336.071 225.73 336.124 225.727H355.297C355.35 225.73 355.399 225.754 355.436 225.792C355.472 225.831 355.492 225.882 355.492 225.935C355.492 225.988 355.472 226.039 355.436 226.078C355.399 226.116 355.35 226.14 355.297 226.144Z" fill="#B390FF"/>
<path d="M331.047 226.635H325.771C325.715 226.635 325.662 226.613 325.623 226.574C325.584 226.535 325.562 226.482 325.562 226.427C325.562 226.372 325.584 226.319 325.623 226.28C325.662 226.241 325.715 226.219 325.771 226.219H331.047C331.102 226.219 331.155 226.241 331.194 226.28C331.233 226.319 331.255 226.372 331.255 226.427C331.255 226.482 331.233 226.535 331.194 226.574C331.155 226.613 331.102 226.635 331.047 226.635Z" fill="#B390FF"/>
<path d="M327.4 223.582H323.278C323.25 223.584 323.221 223.58 323.194 223.57C323.167 223.56 323.142 223.545 323.121 223.526C323.1 223.506 323.083 223.483 323.072 223.456C323.061 223.43 323.055 223.402 323.055 223.373C323.055 223.344 323.061 223.316 323.072 223.29C323.083 223.263 323.1 223.24 323.121 223.22C323.142 223.201 323.167 223.186 323.194 223.176C323.221 223.167 323.25 223.163 323.278 223.165H327.4C327.453 223.168 327.502 223.192 327.538 223.23C327.575 223.269 327.595 223.32 327.595 223.373C327.595 223.426 327.575 223.477 327.538 223.516C327.502 223.554 327.453 223.578 327.4 223.582Z" fill="#B390FF"/>
<path opacity="0.3" d="M281.273 36.4453H400.927V202.586C400.927 204.58 400.135 206.492 398.726 207.902C397.316 209.311 395.404 210.103 393.41 210.103H288.79C286.797 210.103 284.885 209.311 283.475 207.902C282.065 206.492 281.273 204.58 281.273 202.586V36.4453Z" fill="#5405FF"/>
<path opacity="0.3" d="M391.96 59.2656H297.18V142.196H391.96V59.2656Z" fill="#5405FF"/>
<path opacity="0.3" d="M330.508 164.695H297.18V175.25H330.508V164.695Z" fill="#5405FF"/>
<path opacity="0.3" d="M391.967 164.695H335.516V175.25H391.967V164.695Z" fill="#5405FF"/>
<path opacity="0.3" d="M391.96 181.594H297.18V196.323H391.96V181.594Z" fill="#5405FF"/>
<path opacity="0.3" d="M400.927 36.4453H281.273V54.2013H400.927V36.4453Z" fill="#5405FF"/>
<path opacity="0.66" d="M400.927 53.8594H281.273V54.2014H400.927V53.8594Z" fill="#5405FF"/>
<path d="M288.42 47.7931C290.033 47.7931 291.34 46.4858 291.34 44.8731C291.34 43.2605 290.033 41.9531 288.42 41.9531C286.807 41.9531 285.5 43.2605 285.5 44.8731C285.5 46.4858 286.807 47.7931 288.42 47.7931Z" fill="#5E23DD"/>
<path d="M297.186 47.7931C298.798 47.7931 300.106 46.4858 300.106 44.8731C300.106 43.2605 298.798 41.9531 297.186 41.9531C295.573 41.9531 294.266 43.2605 294.266 44.8731C294.266 46.4858 295.573 47.7931 297.186 47.7931Z" fill="#5E23DD"/>
<path d="M305.873 47.7931C307.486 47.7931 308.793 46.4858 308.793 44.8731C308.793 43.2605 307.486 41.9531 305.873 41.9531C304.26 41.9531 302.953 43.2605 302.953 44.8731C302.953 46.4858 304.26 47.7931 305.873 47.7931Z" fill="#5E23DD"/>
<path opacity="0.3" d="M288.891 56.7422H287.948C286.596 56.7422 285.5 57.8382 285.5 59.1902V200.637C285.5 201.989 286.596 203.085 287.948 203.085H288.891C290.243 203.085 291.339 201.989 291.339 200.637V59.1902C291.339 57.8382 290.243 56.7422 288.891 56.7422Z" fill="#5405FF"/>
<path d="M288.41 59.2656H288.033C287.493 59.2656 287.055 59.7035 287.055 60.2436V79.6156C287.055 80.1558 287.493 80.5936 288.033 80.5936H288.41C288.95 80.5936 289.388 80.1558 289.388 79.6156V60.2436C289.388 59.7035 288.95 59.2656 288.41 59.2656Z" fill="#5405FF"/>
<path d="M300.867 64.1328H340.778" stroke="#B390FF" stroke-linecap="round" stroke-linejoin="round"/>
<path d="M344.57 64.1328H351.06" stroke="#B390FF" stroke-linecap="round" stroke-linejoin="round"/>
<path d="M358.219 64.1328H386.544" stroke="#B390FF" stroke-linecap="round" stroke-linejoin="round"/>
<path d="M300.867 68.2266H349.127" stroke="#B390FF" stroke-linecap="round" stroke-linejoin="round"/>
<path d="M353.898 67.4766H373.516" stroke="#B390FF" stroke-linecap="round" stroke-linejoin="round"/>
<path d="M377.148 67.4766H387.136" stroke="#B390FF" stroke-linecap="round" stroke-linejoin="round"/>
<path d="M302.953 73.2969H360.006" stroke="#B390FF" stroke-linecap="round" stroke-linejoin="round"/>
<path d="M366.719 73.2969H382.149" stroke="#B390FF" stroke-linecap="round" stroke-linejoin="round"/>
<path d="M387.144 77.8438H343.016" stroke="#B390FF" stroke-linecap="round" stroke-linejoin="round"/>
<path d="M361.947 84.0234H300.867" stroke="#B390FF" stroke-linecap="round" stroke-linejoin="round"/>
<path d="M343.016 87.9062H388.187" stroke="#B390FF" stroke-linecap="round" stroke-linejoin="round"/>
<path d="M386.437 148.352H349.281" stroke="#B390FF" stroke-linecap="round" stroke-linejoin="round"/>
<path d="M300.867 77.8438H317.074" stroke="#B390FF" stroke-linecap="round" stroke-linejoin="round"/>
<path d="M326.908 167.133H315.727" stroke="#B390FF" stroke-linecap="round" stroke-linejoin="round"/>
<path d="M325.869 172.047H300.078" stroke="#B390FF" stroke-linecap="round" stroke-linejoin="round"/>
<path d="M338.391 167.133H343.012" stroke="#B390FF" stroke-linecap="round" stroke-linejoin="round"/>
<path d="M346.812 167.133H351.433" stroke="#B390FF" stroke-linecap="round" stroke-linejoin="round"/>
<path d="M355.234 167.133H359.855" stroke="#B390FF" stroke-linecap="round" stroke-linejoin="round"/>
<path d="M363.664 167.133H368.285" stroke="#B390FF" stroke-linecap="round" stroke-linejoin="round"/>
<path d="M372.086 167.133H376.707" stroke="#B390FF" stroke-linecap="round" stroke-linejoin="round"/>
<path d="M380.508 167.133H385.129" stroke="#B390FF" stroke-linecap="round" stroke-linejoin="round"/>
<path d="M338.391 170.719H341.373" stroke="#B390FF" stroke-linecap="round" stroke-linejoin="round"/>
<path d="M345.32 170.719H348.302" stroke="#B390FF" stroke-linecap="round" stroke-linejoin="round"/>
<path d="M352.258 170.719H355.24" stroke="#B390FF" stroke-linecap="round" stroke-linejoin="round"/>
<path d="M359.188 170.719H362.17" stroke="#B390FF" stroke-linecap="round" stroke-linejoin="round"/>
<path d="M366.117 170.719H369.099" stroke="#B390FF" stroke-linecap="round" stroke-linejoin="round"/>
<path d="M373.055 170.719H376.037" stroke="#B390FF" stroke-linecap="round" stroke-linejoin="round"/>
<path d="M379.984 170.719H382.966" stroke="#B390FF" stroke-linecap="round" stroke-linejoin="round"/>
<path d="M303.727 185.352L300.445 188.634L303.599 191.788" stroke="#B390FF" stroke-linecap="round" stroke-linejoin="round"/>
<path d="M307.009 185.352L303.727 188.634L306.881 191.788" stroke="#B390FF" stroke-linecap="round" stroke-linejoin="round"/>
<path d="M315.133 185.352H385.125" stroke="#B390FF" stroke-linecap="round" stroke-linejoin="round"/>
<path d="M315.133 188.57H357.545" stroke="#B390FF" stroke-linecap="round" stroke-linejoin="round"/>
<path d="M315.133 193.102H357.545" stroke="#B390FF" stroke-linecap="round" stroke-linejoin="round"/>
<path d="M400.923 219.134C399.49 219.134 398.09 218.71 396.899 217.914C395.708 217.118 394.779 215.987 394.231 214.663C393.683 213.34 393.539 211.883 393.819 210.478C394.098 209.073 394.788 207.783 395.801 206.77C396.814 205.757 398.105 205.067 399.51 204.788C400.915 204.508 402.371 204.652 403.694 205.2C405.018 205.748 406.149 206.676 406.945 207.867C407.741 209.059 408.166 210.459 408.166 211.891C408.166 213.812 407.403 215.655 406.044 217.013C404.686 218.371 402.844 219.134 400.923 219.134ZM400.923 205.952C399.748 205.952 398.6 206.301 397.623 206.953C396.646 207.606 395.885 208.533 395.436 209.619C394.986 210.704 394.869 211.898 395.098 213.05C395.327 214.202 395.893 215.26 396.723 216.091C397.554 216.922 398.612 217.487 399.764 217.716C400.916 217.945 402.11 217.828 403.195 217.378C404.281 216.929 405.208 216.168 405.861 215.191C406.513 214.214 406.862 213.066 406.862 211.891C406.862 210.316 406.236 208.806 405.122 207.692C404.008 206.578 402.498 205.952 400.923 205.952Z" fill="#844DF9"/>
<path d="M81.5477 189.963C80.1151 189.963 78.7147 189.538 77.5236 188.742C76.3325 187.946 75.4041 186.815 74.8559 185.491C74.3078 184.168 74.1644 182.711 74.4439 181.306C74.7235 179.901 75.4134 178.611 76.4265 177.598C77.4395 176.585 78.7302 175.895 80.1353 175.616C81.5403 175.336 82.9967 175.48 84.3202 176.028C85.6436 176.577 86.7748 177.505 87.5705 178.696C88.3663 179.888 88.7909 181.288 88.7907 182.721C88.7907 184.642 88.0276 186.484 86.6693 187.842C85.3109 189.2 83.4687 189.963 81.5477 189.963ZM81.5477 176.781C80.3731 176.78 79.2248 177.128 78.248 177.781C77.2712 178.433 76.5098 179.361 76.0602 180.446C75.6105 181.531 75.4927 182.725 75.7216 183.877C75.9506 185.029 76.516 186.088 77.3465 186.918C78.1769 187.749 79.2351 188.315 80.3871 188.544C81.5391 188.774 82.7332 188.656 83.8185 188.207C84.9038 187.758 85.8315 186.996 86.4842 186.02C87.137 185.043 87.4855 183.895 87.4857 182.721C87.4857 181.146 86.8601 179.635 85.7466 178.521C84.633 177.408 83.1226 176.782 81.5477 176.782V176.781Z" fill="#844DF9"/>
<path d="M211.569 48.3451L209.883 50.0312L224.994 65.1427L226.68 63.4565L211.569 48.3451Z" fill="#844DF9"/>
<path d="M224.997 48.3472L209.883 63.4609L211.569 65.1474L226.683 50.0337L224.997 48.3472Z" fill="#844DF9"/>
<path d="M85.7234 240.559L68.7344 223.57L85.7234 206.578L102.711 223.57L85.7234 240.559ZM72.1114 223.57L85.7274 237.186L99.3434 223.57L85.7274 209.952L72.1114 223.57Z" fill="#844DF9"/>
<path d="M117.083 321.083L100.094 304.094L117.083 287.102L134.071 304.094L117.083 321.083ZM103.471 304.094L117.087 317.71L130.703 304.094L117.087 290.476L103.471 304.094Z" fill="#844DF9"/>
<path d="M433.264 175.029L423.273 165.038L433.264 155.047L434.308 156.091L425.36 165.039L434.308 173.987L433.264 175.029Z" fill="#844DF9"/>
<path d="M440.952 175.029L430.961 165.038L440.952 155.047L441.996 156.091L433.048 165.039L441.996 173.987L440.952 175.029Z" fill="#844DF9"/>
<path d="M148.497 334.498L158.488 324.507L148.497 314.516L147.453 315.56L156.4 324.508L147.453 333.456L148.497 334.498Z" fill="#844DF9"/>
<path d="M140.809 334.498L150.8 324.507L140.809 314.516L139.766 315.56L148.714 324.508L139.766 333.456L140.809 334.498Z" fill="#844DF9"/>
<path d="M271.538 105.146L261.547 95.1551L271.538 85.1641L272.582 86.2081L263.634 95.1561L272.582 104.104L271.538 105.146Z" fill="#844DF9"/>
<path d="M279.225 105.146L269.234 95.1551L279.225 85.1641L280.269 86.2081L271.321 95.1561L280.269 104.104L279.225 105.146Z" fill="#844DF9"/>
<path d="M426.759 131.505H419.801C419.317 131.504 418.854 131.312 418.512 130.97C418.17 130.628 417.977 130.164 417.977 129.681V125.589H416.305C415.971 125.589 415.645 125.49 415.367 125.305C415.09 125.12 414.873 124.856 414.746 124.548C414.618 124.24 414.584 123.901 414.65 123.573C414.715 123.246 414.876 122.945 415.112 122.71L422.086 115.735C422.403 115.419 422.831 115.242 423.278 115.242C423.725 115.242 424.154 115.419 424.471 115.735L431.444 122.711C431.68 122.946 431.841 123.247 431.906 123.574C431.971 123.902 431.938 124.241 431.81 124.549C431.682 124.857 431.466 125.121 431.188 125.306C430.911 125.491 430.585 125.59 430.251 125.59H428.581V129.682C428.58 130.165 428.388 130.628 428.047 130.97C427.705 131.312 427.242 131.504 426.759 131.505ZM423.28 116.435C423.215 116.434 423.151 116.447 423.091 116.472C423.031 116.496 422.977 116.533 422.931 116.579L415.956 123.55C415.887 123.619 415.84 123.707 415.821 123.803C415.802 123.899 415.812 123.998 415.849 124.088C415.887 124.178 415.95 124.255 416.031 124.31C416.113 124.364 416.208 124.393 416.306 124.393H419.171V129.678C419.171 129.845 419.237 130.006 419.356 130.124C419.474 130.242 419.634 130.309 419.802 130.309H426.76C426.927 130.308 427.087 130.242 427.205 130.124C427.323 130.005 427.39 129.845 427.39 129.678V124.393H430.255C430.352 124.393 430.448 124.364 430.529 124.309C430.61 124.255 430.673 124.178 430.711 124.088C430.748 123.997 430.758 123.898 430.739 123.802C430.72 123.707 430.673 123.619 430.604 123.55L423.631 116.575C423.584 116.529 423.53 116.494 423.469 116.47C423.409 116.446 423.345 116.434 423.28 116.435Z" fill="#844DF9"/>
<path d="M413.94 234.486C412.381 231.787 410.139 229.546 407.44 227.986C404.724 226.393 401.627 225.564 398.478 225.586C395.329 225.564 392.234 226.393 389.518 227.986C386.819 229.546 384.577 231.787 383.018 234.486C381.427 237.204 380.601 240.3 380.626 243.448C380.588 247.226 381.784 250.912 384.032 253.948C386.202 256.982 389.286 259.243 392.832 260.399C392.989 260.447 393.155 260.458 393.316 260.429C393.478 260.401 393.631 260.335 393.762 260.236C393.86 260.148 393.937 260.04 393.989 259.919C394.041 259.798 394.065 259.668 394.062 259.536C394.062 259.49 394.058 259.071 394.05 258.281C394.042 257.491 394.038 256.802 394.038 256.212L393.503 256.304C393.076 256.372 392.644 256.399 392.213 256.385C391.671 256.376 391.13 256.321 390.597 256.222C390.029 256.117 389.495 255.877 389.039 255.522C388.56 255.161 388.204 254.662 388.016 254.092L387.784 253.557C387.588 253.134 387.343 252.737 387.052 252.372C386.791 252 386.444 251.697 386.041 251.489L385.878 251.372C385.767 251.292 385.666 251.198 385.578 251.093C385.492 250.996 385.422 250.887 385.369 250.768C385.322 250.66 385.361 250.57 385.485 250.5C385.699 250.416 385.93 250.382 386.159 250.4L386.626 250.469C387.041 250.581 387.432 250.77 387.777 251.027C388.238 251.342 388.623 251.755 388.904 252.236C389.211 252.817 389.654 253.315 390.194 253.689C390.64 254.004 391.171 254.178 391.717 254.189C392.161 254.195 392.605 254.157 393.042 254.073C393.403 253.999 393.754 253.882 394.088 253.724C394.164 252.815 394.569 251.963 395.226 251.329C394.422 251.25 393.625 251.11 392.843 250.91C392.08 250.7 391.346 250.396 390.658 250.003C389.938 249.612 389.302 249.083 388.786 248.446C388.233 247.714 387.82 246.887 387.566 246.005C387.231 244.874 387.07 243.698 387.089 242.518C387.051 240.743 387.71 239.024 388.926 237.729C388.355 236.189 388.413 234.485 389.089 232.987C389.772 232.877 390.472 232.987 391.089 233.301C391.758 233.551 392.407 233.852 393.03 234.201C393.441 234.449 393.77 234.658 394.018 234.829C396.939 234.024 400.024 234.024 402.946 234.829L403.829 234.271C404.508 233.864 405.223 233.521 405.967 233.248C406.551 232.964 407.212 232.875 407.851 232.992C408.192 233.732 408.385 234.531 408.416 235.345C408.448 236.159 408.319 236.971 408.037 237.734C409.253 239.029 409.912 240.748 409.874 242.523C409.892 243.707 409.732 244.887 409.397 246.023C409.146 246.908 408.728 247.737 408.165 248.464C407.64 249.094 407.001 249.618 406.282 250.01C405.594 250.403 404.86 250.707 404.097 250.917C403.314 251.117 402.518 251.257 401.714 251.336C402.145 251.764 402.477 252.281 402.686 252.852C402.895 253.422 402.976 254.031 402.923 254.636V259.536C402.919 259.667 402.943 259.797 402.993 259.918C403.044 260.038 403.119 260.147 403.214 260.236C403.343 260.335 403.493 260.401 403.653 260.43C403.813 260.458 403.977 260.447 404.132 260.398C407.678 259.242 410.762 256.981 412.932 253.947C415.18 250.911 416.376 247.225 416.338 243.447C416.36 240.299 415.53 237.203 413.938 234.486H413.94Z" fill="#5E23DD"/>
<path d="M278.316 60.4948C276.994 60.496 275.691 60.7994 274.506 61.3818C274.132 60.7671 273.844 60.1039 273.652 59.4108C273.542 58.8648 273.517 58.3053 273.578 57.7518C273.702 57.1442 273.869 56.5461 274.078 55.9618C274.07 55.8878 273.988 55.5268 273.142 55.5188C272.296 55.5108 271.565 55.6828 271.483 55.9048C271.336 56.3142 271.219 56.7332 271.131 57.1588C270.43 58.8832 269.569 60.5384 268.561 62.1028C268.293 61.6542 268.096 61.1668 267.978 60.6578C267.868 60.1118 267.843 59.5523 267.904 58.9988C268.028 58.3912 268.195 57.7931 268.404 57.2088C268.396 57.1348 268.314 56.7738 267.468 56.7658C266.622 56.7578 265.891 56.9298 265.809 57.1518C265.727 57.3738 265.637 57.8988 265.456 58.4078C265.275 58.9168 263.231 63.4828 262.697 64.6738C262.426 65.2818 262.188 65.7658 262.015 66.0948C261.842 66.4238 262.007 66.1198 261.99 66.1518L261.76 66.5868V66.5948C261.645 66.7948 261.522 66.9948 261.46 66.9948C261.359 66.5645 261.365 66.1165 261.476 65.6888C261.776 64.1038 262.519 61.6318 262.511 61.5418C262.511 61.5008 262.651 61.0658 262.035 60.8418C261.893 60.7729 261.734 60.7501 261.58 60.7767C261.425 60.8032 261.283 60.8778 261.173 60.9898C261.124 60.9898 261.083 61.1208 261.083 61.1208C261.083 61.1208 261.748 58.3368 259.81 58.3368C258.595 58.3368 256.919 59.6588 256.09 60.8658C255.564 61.1528 254.448 61.7658 253.265 62.4098C252.813 62.6558 252.345 62.9188 251.902 63.1568L251.812 63.0568C249.463 60.5568 245.119 58.7788 245.3 55.4118C245.366 54.1878 245.793 50.9608 253.643 47.0518C260.073 43.8518 265.222 44.7278 266.117 46.6818C267.39 49.4738 263.366 54.6638 256.682 55.4108C254.136 55.6978 252.798 54.7108 252.461 54.3428C252.108 53.9568 252.061 53.9428 251.927 54.0148C251.713 54.1298 251.845 54.4748 251.927 54.6798C252.182 55.1412 252.527 55.5469 252.942 55.8732C253.357 56.1994 253.832 56.4396 254.341 56.5798C256.966 57.15 259.703 56.88 262.167 55.8078C266.215 54.2398 269.377 49.8868 268.449 46.2488C267.509 42.5488 261.367 41.3368 255.561 43.3978C251.92 44.6203 248.556 46.5484 245.661 49.0718C242.463 52.0588 241.954 54.6728 242.168 55.7588C242.915 59.6248 248.241 62.1458 250.379 64.0098C250.272 64.0668 250.179 64.1248 250.079 64.1738C249.011 64.6988 244.947 66.8258 243.928 69.0738C242.778 71.6198 244.109 73.4508 244.996 73.6968C246.326 74.0155 247.722 73.9106 248.99 73.3968C250.257 72.8829 251.333 71.9858 252.066 70.8308C252.689 69.874 253.072 68.7808 253.182 67.6443C253.292 66.5077 253.126 65.3614 252.698 64.3028L252.673 64.2538L253.511 63.7608C254.053 63.4408 254.587 63.1448 255.055 62.8898C254.742 63.7903 254.557 64.73 254.505 65.6818C254.397 67.144 254.846 68.5929 255.761 69.7388C256.041 69.9775 256.404 70.0954 256.771 70.0668C257.671 70.0668 258.085 69.3198 258.537 68.4248C259.095 67.3328 259.588 66.0678 259.588 66.0678C259.588 66.0678 258.972 69.4918 260.656 69.4918C261.272 69.4918 261.888 68.6918 262.167 68.2848V68.2928C262.167 68.2928 262.183 68.2678 262.216 68.2108C262.249 68.1538 262.283 68.1108 262.316 68.0548V68.0388C262.562 67.6118 263.116 66.6388 263.934 65.0168C264.993 62.9308 266.012 60.3168 266.012 60.3168C266.112 60.8881 266.246 61.453 266.412 62.0088C266.66 62.6846 266.954 63.3431 267.291 63.9798C267.045 64.3248 266.897 64.5218 266.897 64.5218L266.905 64.5298C266.705 64.7928 266.486 65.0718 266.256 65.3508C265.545 66.1303 264.886 66.9561 264.285 67.8228C264.196 67.9681 264.166 68.1414 264.199 68.3082C264.233 68.4749 264.328 68.623 264.466 68.7228C264.783 68.8889 265.147 68.9465 265.501 68.8868C266.032 68.8591 266.554 68.7397 267.045 68.5338C267.519 68.3643 267.966 68.1286 268.375 67.8338C268.794 67.5438 269.132 67.1504 269.355 66.6915C269.578 66.2327 269.679 65.724 269.648 65.2148C269.6 64.5744 269.436 63.9481 269.164 63.3668C269.238 63.2598 269.312 63.1528 269.386 63.0388C270.24 61.7635 271.008 60.4329 271.686 59.0558C271.786 59.6271 271.92 60.192 272.086 60.7478C272.29 61.3304 272.54 61.8961 272.833 62.4398C271.851 63.2 271.079 64.1982 270.591 65.3398C270.107 66.7398 270.484 67.3678 271.199 67.5158C271.587 67.5408 271.976 67.4613 272.324 67.2858C272.831 67.1192 273.309 66.8738 273.741 66.5588C274.197 66.2888 274.579 65.9101 274.853 65.4564C275.128 65.0028 275.285 64.4882 275.313 63.9588C275.277 63.4313 275.158 62.9128 274.96 62.4228C276.253 61.9157 277.657 61.7544 279.033 61.9548C282.687 62.3818 283.41 64.6648 283.27 65.6168C283.203 65.9567 283.066 66.2788 282.866 66.5618C282.667 66.8448 282.41 67.0824 282.112 67.2588C281.857 67.4148 281.775 67.4728 281.8 67.5868C281.833 67.7598 281.948 67.7508 282.17 67.7178C282.719 67.5457 283.202 67.211 283.557 66.758C283.912 66.305 284.121 65.7551 284.157 65.1808C284.257 62.9218 282.112 60.4588 278.31 60.4808L278.316 60.4948ZM250.133 69.9948C248.926 71.3168 247.226 71.8178 246.503 71.3948C245.723 70.9428 246.027 68.9948 247.513 67.5948C248.395 66.7966 249.349 66.0815 250.363 65.4588C250.535 65.3518 250.798 65.1958 251.11 65.0068C251.136 64.989 251.163 64.9726 251.192 64.9578C251.249 64.9248 251.315 64.8838 251.381 64.8428C251.65 65.7351 251.676 66.683 251.457 67.5889C251.237 68.4947 250.78 69.3246 250.133 69.9948ZM258.961 63.9948C258.542 65.0208 257.655 67.6568 257.122 67.5098C256.662 67.3868 256.383 65.3908 257.032 63.4208C257.362 62.4688 257.847 61.5781 258.469 60.7848C259.134 60.0458 259.857 59.7998 260.038 60.1028C260.25 60.4948 259.224 63.3528 258.961 63.9928V63.9948ZM266.241 67.4748C266.06 67.5648 265.896 67.6308 265.822 67.5818C265.765 67.5488 265.896 67.4258 265.896 67.4258C265.896 67.4258 266.808 66.4488 267.169 65.9968C267.369 65.7338 267.621 65.4298 267.883 65.0848V65.1848C267.815 65.6709 267.63 66.1332 267.344 66.5321C267.058 66.9309 266.679 67.2544 266.241 67.4748ZM271.858 66.1938C271.727 66.0938 271.743 65.7938 272.186 64.8388C272.488 64.2233 272.913 63.6756 273.434 63.2288C273.516 63.455 273.558 63.694 273.557 63.9348C273.564 64.4457 273.401 64.9446 273.094 65.3533C272.788 65.7621 272.354 66.0576 271.862 66.1938H271.858Z" fill="#844DF9"/>
<path d="M81.5469 207.473C81.5474 208.645 82.0136 209.77 82.843 210.599C83.6725 211.428 84.7972 211.894 85.9699 211.894H111.426C112.598 211.893 113.722 211.427 114.551 210.598C115.38 209.769 115.846 208.645 115.847 207.473V182.017C115.847 180.844 115.381 179.719 114.552 178.89C113.723 178.061 112.599 177.594 111.426 177.594H85.9699C84.7968 177.594 83.6718 178.06 82.8423 178.889C82.0129 179.719 81.5469 180.844 81.5469 182.017V207.473Z" fill="#5E23DD"/>
<path d="M95.7701 192.766V187.909H100.046C100.441 187.907 100.835 187.941 101.224 188.009C101.577 188.068 101.916 188.192 102.224 188.373C102.518 188.549 102.759 188.8 102.924 189.1C103.112 189.468 103.202 189.879 103.186 190.293C103.218 190.648 103.164 191.006 103.027 191.335C102.89 191.665 102.675 191.956 102.401 192.184C101.813 192.591 101.109 192.796 100.394 192.766H95.7701ZM91.2031 184.36V205.129H101.267C102.185 205.131 103.099 205.013 103.987 204.78C104.831 204.565 105.628 204.201 106.343 203.704C107.032 203.218 107.595 202.575 107.986 201.828C108.439 200.871 108.646 199.817 108.587 198.76C108.529 197.704 108.208 196.679 107.652 195.778C106.958 194.813 105.942 194.127 104.787 193.844C105.63 193.47 106.359 192.878 106.896 192.128C107.395 191.348 107.643 190.435 107.609 189.51C107.635 188.669 107.471 187.833 107.128 187.065C106.825 186.426 106.359 185.879 105.775 185.48C105.14 185.06 104.428 184.768 103.681 184.622C102.793 184.44 101.888 184.352 100.981 184.36H91.2031ZM95.7701 201.58V195.88H100.744C101.592 195.837 102.43 196.076 103.128 196.56C103.449 196.841 103.698 197.195 103.854 197.592C104.011 197.99 104.07 198.418 104.028 198.843C104.046 199.305 103.951 199.764 103.752 200.181C103.58 200.516 103.325 200.802 103.01 201.01C102.682 201.221 102.317 201.369 101.934 201.446C101.513 201.534 101.084 201.578 100.654 201.577L95.7701 201.58Z" fill="#844DF9"/>
<path d="M352.933 10.4673C358.12 10.4673 362.795 11.2026 366.156 12.3765C367.838 12.9643 369.164 13.6527 370.06 14.3924C370.959 15.1347 371.366 15.877 371.366 16.5813C371.366 17.2857 370.959 18.0279 370.06 18.7703C369.164 19.5099 367.838 20.1983 366.156 20.7861C362.795 21.96 358.12 22.6953 352.933 22.6953C347.746 22.6953 343.071 21.96 339.71 20.7861C338.028 20.1983 336.702 19.5099 335.806 18.7703C334.907 18.0279 334.5 17.2857 334.5 16.5813C334.5 15.877 334.907 15.1347 335.806 14.3924C336.702 13.6527 338.028 12.9643 339.71 12.3765C343.071 11.2026 347.746 10.4673 352.933 10.4673Z" stroke="#844DF9"/>
<path d="M371.464 16.5829C371.464 13.151 363.167 10.3689 352.931 10.3689C342.696 10.3689 334.398 13.151 334.398 16.5829C334.398 20.0148 342.696 22.7969 352.931 22.7969C363.167 22.7969 371.464 20.0148 371.464 16.5829Z" stroke="#844DF9" stroke-width="0.8"/>
<path d="M358.122 13.6496C360.716 18.1421 362.416 22.5583 363.08 26.0555C363.412 27.8065 363.479 29.299 363.286 30.4444C363.093 31.5939 362.654 32.3179 362.044 32.6701C361.434 33.0223 360.587 33.0405 359.495 32.6333C358.407 32.2276 357.147 31.4235 355.797 30.2603C353.1 27.937 350.126 24.2561 347.532 19.7636C344.939 15.2712 343.238 10.855 342.574 7.35779C342.242 5.60679 342.175 4.11428 342.368 2.96893C342.562 1.8194 343.001 1.09537 343.611 0.7432C344.221 0.391029 345.067 0.372766 346.16 0.779971C347.248 1.1857 348.507 1.98978 349.857 3.15301C352.554 5.47627 355.528 9.15723 358.122 13.6496Z" stroke="#844DF9"/>
<path d="M362.094 32.7587C365.066 31.0428 363.327 22.4659 358.209 13.6017C353.091 4.73748 346.533 -1.05732 343.561 0.658625C340.589 2.37457 342.328 10.9515 347.446 19.8157C352.564 28.6799 359.122 34.4747 362.094 32.7587Z" stroke="#844DF9" stroke-width="0.8"/>
<path d="M347.53 13.6458C350.123 9.15337 353.098 5.47241 355.794 3.14916C357.145 1.98593 358.404 1.18184 359.492 0.776114C360.584 0.36891 361.431 0.387173 362.041 0.739344C362.651 1.09152 363.09 1.81554 363.284 2.96507C363.476 4.11042 363.41 5.60293 363.077 7.35394C362.414 10.8511 360.713 15.2674 358.119 19.7598C355.526 24.2522 352.551 27.9332 349.855 30.2564C348.504 31.4197 347.245 32.2237 346.157 32.6295C345.065 33.0367 344.218 33.0184 343.608 32.6662C342.998 32.3141 342.559 31.59 342.365 30.4405C342.173 29.2952 342.239 27.8026 342.572 26.0516C343.235 22.5545 344.936 18.1382 347.53 13.6458Z" stroke="#844DF9"/>
<path d="M362.089 0.65228C359.117 -1.06367 352.559 4.73113 347.441 13.5953C342.323 22.4595 340.584 31.0364 343.556 32.7524C346.528 34.4683 353.086 28.6735 358.204 19.8093C363.322 10.9451 365.061 2.36823 362.089 0.65228Z" stroke="#844DF9" stroke-width="0.8"/>
<path d="M355.673 16.7078C355.673 18.2205 354.447 19.4468 352.934 19.4468C351.422 19.4468 350.195 18.2205 350.195 16.7078C350.195 15.195 351.422 13.9688 352.934 13.9688C354.447 13.9688 355.673 15.195 355.673 16.7078Z" fill="#844DF9" stroke="#844DF9"/>
<path d="M445.063 93.026H411.963C410.912 93.0249 409.905 92.6071 409.162 91.8641C408.419 91.1211 408.001 90.1137 408 89.063V55.963C408.001 54.9123 408.419 53.9049 409.162 53.1619C409.905 52.4189 410.912 52.0011 411.963 52H445.063C446.114 52.0011 447.121 52.4189 447.864 53.1619C448.607 53.9049 449.025 54.9123 449.026 55.963V89.063C449.025 90.1137 448.607 91.1211 447.864 91.8641C447.121 92.6071 446.114 93.0249 445.063 93.026ZM411.963 54.331C411.531 54.3323 411.117 54.5048 410.812 54.8106C410.506 55.1165 410.335 55.5308 410.334 55.963V89.063C410.335 89.4957 410.507 89.9105 410.813 90.2164C411.119 90.5224 411.533 90.6945 411.966 90.695H445.066C445.499 90.6945 445.913 90.5224 446.219 90.2164C446.525 89.9105 446.697 89.4957 446.698 89.063V55.963C446.697 55.5303 446.525 55.1155 446.219 54.8096C445.913 54.5036 445.499 54.3315 445.066 54.331H411.963Z" fill="#5E23DD"/>
<path d="M420.031 84.1853L422.671 82.5853C423.18 83.4853 423.644 84.2523 424.755 84.2523C425.82 84.2523 426.492 83.8353 426.492 82.2153V71.1953H429.734V82.2663C429.734 85.6243 427.766 87.1523 424.894 87.1523C423.879 87.2073 422.871 86.9536 422.003 86.4245C421.135 85.8954 420.448 85.1158 420.031 84.1883" fill="#5E23DD"/>
<path d="M431.492 83.8357L434.132 82.3077C434.426 82.9038 434.882 83.4049 435.448 83.753C436.015 84.1012 436.668 84.2824 437.332 84.2757C438.675 84.2757 439.532 83.6037 439.532 82.6757C439.532 81.5647 438.652 81.1757 437.17 80.5227L436.36 80.1747C434.021 79.1747 432.47 77.9287 432.47 75.2887C432.47 72.8577 434.322 71.0047 437.217 71.0047C438.155 70.9368 439.092 71.1466 439.912 71.6079C440.731 72.0692 441.397 72.7616 441.825 73.5987L439.301 75.2197C439.135 74.8043 438.847 74.449 438.475 74.201C438.103 73.9529 437.664 73.8238 437.217 73.8307C437.022 73.8109 436.825 73.8321 436.639 73.8927C436.453 73.9533 436.281 74.0522 436.135 74.1829C435.989 74.3135 435.872 74.4733 435.791 74.6518C435.71 74.8303 435.667 75.0237 435.665 75.2197C435.665 76.1927 436.265 76.5857 437.656 77.1877L438.466 77.5347C441.222 78.7157 442.773 79.9197 442.773 82.6287C442.773 85.5467 440.481 87.1437 437.401 87.1437C436.203 87.2191 435.009 86.9468 433.962 86.3594C432.916 85.7719 432.061 84.8945 431.501 83.8327" fill="#5E23DD"/>
</g>
<defs>
<clipPath id="clip0_2364_1074">
<rect width="475" height="450" fill="white"/>
</clipPath>
</defs>
</svg>
