<svg width="758" height="1088" viewBox="0 0 758 1088" fill="none" xmlns="http://www.w3.org/2000/svg">
<path d="M0 50C0 22.3858 22.3858 0 50 0H708C735.614 0 758 22.3858 758 50V735.517C758 749.816 751.878 763.431 741.181 772.92L418.574 1059.1C399.902 1075.67 371.875 1075.92 352.903 1059.7L17.5091 772.969C6.39764 763.469 0 749.583 0 734.964V50Z" fill="#503190"/>
<path d="M340.14 101.318C312.54 102.979 285.74 109.221 263.225 119.242C234.711 131.898 209.168 152.285 190.425 177.367C170.654 203.767 159.283 234.346 155.454 270.996C154.54 280.159 154.54 306.558 155.454 314.805C159.168 347.16 168.654 373.674 185.454 398.87C207.625 432.142 240.54 458.77 282.483 477.324C296.254 483.452 300.711 484.998 386.997 514.089C426.825 527.489 435.74 530.81 451.74 538.255C470.311 546.845 483.111 555.091 493.054 565.055C504.94 576.852 510.997 587.962 514.54 604.454C516.254 612.357 516.425 632.113 514.825 640.016C511.625 655.707 504.94 668.821 494.14 680.274C472.883 702.951 443.683 714.232 406.425 714.232C364.883 714.232 328.597 699.63 293.283 668.649C263.625 642.708 235.111 602.278 212.711 554.518C207.111 542.55 199.054 523.767 195.283 513.631L192.54 506.358H164.425H136.311L135.054 507.675L133.797 509.05L138.14 592.6C146.368 752.428 146.997 764.34 147.283 765.027C147.454 765.6 152.94 765.771 172.083 765.771C185.568 765.771 196.768 765.542 196.94 765.313C197.054 765.084 197.511 762.679 197.854 760.045C199.683 745.957 205.797 732.328 212.54 726.945C217.511 723.051 219.225 722.536 226.711 722.593C237.054 722.65 243.911 724.769 274.711 737.425C310.768 752.199 348.14 762.965 377.454 766.974C388.54 768.463 416.54 769.093 429.111 768.119C481.968 763.939 524.768 745.385 559.797 711.369C595.168 677.01 614.254 634.805 618.483 581.319C619.34 570.725 618.825 544.211 617.568 533.559C612.197 487.174 595.283 450.066 565.568 419.372C541.511 394.518 509.911 374.59 469.74 358.842C457.625 354.089 452.14 352.256 397.283 334.848C340.711 316.866 337.111 315.664 327.34 311.54C307.225 303.122 292.025 293.273 279.283 280.445C266.711 267.847 259.568 254.847 257.283 240.531C256.14 233.602 256.825 220.545 258.654 213.559C261.511 202.392 267.511 192.199 276.025 183.666C290.997 168.834 309.854 160.016 335.283 156.122C340.768 155.263 345.34 155.033 358.425 155.033C372.883 155.033 375.511 155.205 382.025 156.351C426.254 164.311 462.597 190.252 496.311 237.954C507.911 254.275 516.825 269.45 528.768 293.044L537.74 310.796L559.968 310.968L582.197 311.082L583.797 309.422L585.397 307.761L580.997 223.924C578.597 177.882 576.197 131.898 575.683 121.819L574.711 103.494L552.997 103.666C541.054 103.781 531.111 104.067 530.94 104.239C530.768 104.468 530.14 106.415 529.568 108.648C527.054 118.555 521.968 127.947 516.883 132.356C510.825 137.51 504.997 138.942 496.311 137.338C493.225 136.766 489.568 136.079 488.14 135.849C486.711 135.563 480.825 133.215 474.997 130.524C440.254 114.604 402.94 104.124 371.854 101.49C365.511 100.975 347.511 100.86 340.14 101.318Z" fill="#D6D6D6"/>
</svg>
