<svg width="976" height="779" viewBox="0 0 976 779" fill="none" xmlns="http://www.w3.org/2000/svg">
<circle cx="278" cy="412" r="278" fill="white" fill-opacity="0.8"/>
<circle cx="698" cy="412" r="278" fill="black" fill-opacity="0.8"/>
<path d="M434.203 1.33026C377.137 1.86359 341.003 2.79689 335.537 3.73022C299.67 9.99689 277.803 18.2636 260.203 32.3969C229.803 56.7969 218.337 97.3302 229.537 140.664C239.003 176.53 267.137 217.064 302.603 245.73C313.27 254.264 397.803 316.397 551.537 428.397C574.604 445.33 602.604 465.864 613.537 474.13C697.004 536.664 725.67 573.864 735.803 632.664C738.07 646.53 738.47 652.664 737.937 677.73L737.404 706.797L743.137 697.73C746.337 692.797 752.604 681.464 756.87 672.664C771.004 643.864 777.804 618.797 779.137 589.997C781.137 545.464 767.67 504.664 737.27 463.597C724.337 446.13 695.404 417.33 674.87 401.33C666.07 394.53 659.004 388.397 659.137 387.864C659.404 387.197 664.604 377.864 670.737 367.064C676.87 356.13 717.67 283.464 761.537 205.33C805.404 127.197 849.27 49.1969 859.003 31.9969L876.603 0.663574L783.803 0.263611C732.737 0.130278 689.537 0.263574 687.937 0.663574C685.803 1.19691 681.004 8.53028 669.537 28.5303C661.137 43.4636 654.203 55.9969 654.203 56.3969C654.203 56.6636 662.737 57.3303 673.27 57.5969C688.337 58.1303 693.67 58.9302 699.67 61.1969C715.137 67.0636 720.07 77.9969 714.337 93.3303C712.87 97.4636 691.937 135.464 668.07 177.997C644.203 220.53 614.87 272.53 603.004 293.597C591.27 314.797 581.137 331.864 580.604 331.597C580.07 331.464 542.203 303.997 496.603 270.664C451.003 237.33 403.403 202.53 390.87 193.464C362.737 172.93 351.803 163.997 341.403 153.197C325.403 136.397 319.27 123.997 319.137 108.93C319.137 101.197 319.803 98.5302 324.07 89.9969C329.67 78.6636 336.337 72.1303 348.203 66.5303C364.737 58.7969 370.07 57.9969 410.203 57.9969C442.07 57.9969 447.803 58.2636 454.203 60.3969C471.27 66.1302 476.87 77.8636 470.203 94.5303C468.737 98.2636 458.603 117.197 447.67 136.53L427.803 171.997L465.67 199.597C486.47 214.93 504.07 227.464 504.603 227.597C505.27 227.864 592.47 73.5969 627.27 10.5303L633.137 -0.00311279L578.604 0.263611C548.737 0.396944 483.67 0.930261 434.203 1.33026Z" fill="white"/>
<g clip-path="url(#clip0_2365_691)">
<g clip-path="url(#clip1_2365_691)">
<path d="M434.108 1.33374C376.978 1.86722 340.804 2.80078 335.331 3.73438C299.425 10.0028 277.534 18.2718 259.914 32.4092C229.48 56.8161 218.001 97.3609 229.213 140.706C238.691 176.583 266.855 217.128 302.361 245.803C313.04 254.339 397.667 316.49 551.572 428.521C574.664 445.459 602.695 465.998 613.641 474.267C697.2 536.819 725.899 574.029 736.043 632.846C738.313 646.716 738.713 652.851 738.179 677.925L737.645 707L743.385 697.931C746.588 692.996 752.862 681.659 757.133 672.857C771.283 644.049 778.09 618.975 779.425 590.167C781.427 545.621 767.946 504.809 737.512 463.731C724.564 446.26 695.598 417.451 675.042 401.447C666.232 394.645 659.158 388.51 659.291 387.976C659.558 387.31 664.764 377.974 670.904 367.171C677.044 356.234 717.89 283.547 761.805 205.391C805.721 127.236 849.636 49.2139 859.38 32.009L877 0.666861L784.097 0.266785C732.973 0.133414 689.725 0.266748 688.123 0.666861C685.988 1.20035 681.182 8.53579 669.703 28.5414C661.294 43.479 654.353 56.0159 654.353 56.416C654.353 56.6827 662.895 57.3496 673.44 57.6163C688.524 58.1498 693.863 58.95 699.87 61.2173C715.354 67.0856 720.293 78.0221 714.553 93.3598C713.085 97.4943 692.128 135.505 668.235 178.05C644.341 220.596 614.975 272.61 603.096 293.683C591.349 314.889 581.205 331.961 580.671 331.694C580.137 331.56 542.228 304.086 496.577 270.743C450.926 237.401 403.274 202.591 390.726 193.521C362.562 172.982 351.616 164.046 341.205 153.243C325.187 136.439 319.047 124.035 318.913 108.964C318.913 101.229 319.58 98.5612 323.852 90.0255C329.458 78.6889 336.132 72.1538 348.012 66.5522C364.564 58.8167 369.903 58.0164 410.081 58.0164C441.983 58.0164 447.723 58.2832 454.13 60.4171C471.216 66.1521 476.822 77.8887 470.148 94.5601C468.68 98.2945 458.535 117.233 447.589 136.572L427.701 172.049L465.609 199.656C486.433 214.994 504.052 227.531 504.586 227.664C505.254 227.931 592.551 73.6209 627.389 10.5364L633.262 -1.42063e-05L578.668 0.266785C548.769 0.400156 483.629 0.933624 434.108 1.33374Z" fill="black"/>
</g>
</g>
<path d="M183.8 85.5963C141.933 156.263 139.267 225.73 175.8 289.863C192.067 318.263 223.8 353.33 255.533 377.863C263.933 384.396 270.733 390.13 270.6 390.53C270.467 390.93 252.867 422.53 231.533 460.663C107.133 682.13 70.3333 747.596 62.0667 761.996L53 777.996L147.267 778.396C199.133 778.53 242.2 778.396 243 778.13C244.333 777.596 272.867 729.063 274.867 723.863C275.533 721.863 273.4 721.596 256.6 721.063C234.467 720.263 225.667 717.73 218.067 709.863C213.8 705.463 213.533 704.663 213.533 696.263C213.667 684.663 206.733 697.996 282.6 563.33C295.8 539.863 310.067 514.663 314.067 507.33C342.467 456.93 348.333 446.796 349.133 447.063C350.067 447.33 531.8 579.863 558.733 599.996C584.2 618.796 601.933 638.263 607.8 653.73C609.533 657.996 610.6 664.13 610.6 669.463C610.733 677.196 610.067 679.73 605.8 688.396C598.333 703.596 586.6 712.263 565.533 718.13C553.933 721.463 494.867 722.396 481.267 719.596C459.933 715.063 452.333 702.663 459.4 684.13C461.267 679.063 492.6 622.263 500.333 609.73C502.067 606.93 500.867 605.863 464.2 579.063C443.4 563.863 425.8 551.196 425.267 551.063C424.733 550.93 418.067 561.73 410.733 575.063C403.267 588.396 375.533 637.996 349 685.196C322.333 732.53 299.8 772.93 298.733 775.063L296.733 778.93L432.467 777.996C507.133 777.596 574.733 776.663 582.6 775.863C639.667 770.663 677.133 750.396 694.2 715.33C717.4 667.73 700.333 606.53 649 552.796C635.8 539.063 624.6 530.263 572.867 492.396C290.467 286.13 290.6 286.13 261.133 259.996C228.2 230.796 206.467 197.73 197.667 163.596C192.6 143.863 191.133 127.863 191.8 98.5297C192.2 83.9963 192.333 71.9963 192.2 71.9963C191.933 71.9963 188.2 78.1297 183.8 85.5963Z" fill="white"/>
<g clip-path="url(#clip2_2365_691)">
<g clip-path="url(#clip3_2365_691)">
<path d="M183.8 85.5963C141.933 156.263 139.267 225.73 175.8 289.863C192.067 318.263 223.8 353.33 255.533 377.863C263.933 384.396 270.733 390.13 270.6 390.53C270.467 390.93 252.867 422.53 231.533 460.663C107.133 682.13 70.3333 747.596 62.0667 761.996L53 777.996L147.267 778.396C199.133 778.53 242.2 778.396 243 778.13C244.333 777.596 272.867 729.063 274.867 723.863C275.533 721.863 273.4 721.596 256.6 721.063C234.467 720.263 225.667 717.73 218.067 709.863C213.8 705.463 213.533 704.663 213.533 696.263C213.667 684.663 206.733 697.996 282.6 563.33C295.8 539.863 310.067 514.663 314.067 507.33C342.467 456.93 348.333 446.796 349.133 447.063C350.067 447.33 531.8 579.863 558.733 599.996C584.2 618.796 601.933 638.263 607.8 653.73C609.533 657.996 610.6 664.13 610.6 669.463C610.733 677.196 610.067 679.73 605.8 688.396C598.333 703.596 586.6 712.263 565.533 718.13C553.933 721.463 494.867 722.396 481.267 719.596C459.933 715.063 452.333 702.663 459.4 684.13C461.267 679.063 492.6 622.263 500.333 609.73C502.067 606.93 500.867 605.863 464.2 579.063C443.4 563.863 425.8 551.196 425.267 551.063C424.733 550.93 418.067 561.73 410.733 575.063C403.267 588.396 375.533 637.996 349 685.196C322.333 732.53 299.8 772.93 298.733 775.063L296.733 778.93L432.467 777.996C507.133 777.596 574.733 776.663 582.6 775.863C639.667 770.663 677.133 750.396 694.2 715.33C717.4 667.73 700.333 606.53 649 552.796C635.8 539.063 624.6 530.263 572.867 492.396C290.467 286.13 290.6 286.13 261.133 259.996C228.2 230.796 206.467 197.73 197.667 163.596C192.6 143.863 191.133 127.863 191.8 98.5297C192.2 83.9963 192.333 71.9963 192.2 71.9963C191.933 71.9963 188.2 78.1297 183.8 85.5963Z" fill="black"/>
</g>
</g>
<defs>
<clipPath id="clip0_2365_691">
<rect width="276" height="707" fill="white" transform="matrix(1 0 0 -1 225 707)"/>
</clipPath>
<clipPath id="clip1_2365_691">
<rect width="652" height="707" fill="white" transform="matrix(1 0 0 -1 225 707)"/>
</clipPath>
<clipPath id="clip2_2365_691">
<rect width="448" height="707" fill="white" transform="translate(53 72)"/>
</clipPath>
<clipPath id="clip3_2365_691">
<rect width="651.373" height="706.933" fill="white" transform="translate(53 72)"/>
</clipPath>
</defs>
</svg>
